# Blender v2.91.2 OBJ File: 'на отправку.blend'
# www.blender.org
mtllib 4.mtl
o Куб.001
v 14.621973 -0.026771 21.419884
v 14.197088 1.024269 21.419884
v 14.621973 -0.026771 18.902382
v 14.197088 1.024269 18.902382
v 20.505747 0.980065 21.419884
v 20.672869 2.188736 21.419884
v 20.672869 0.980065 18.902382
v 20.672869 2.031105 18.902382
v 14.621973 -0.026771 20.161133
v 14.067925 1.024269 20.161133
v 20.617525 0.980065 20.161133
v 20.672869 2.031105 20.161133
v 14.095085 0.941289 19.506233
v 20.672869 0.980065 19.531757
v 14.621973 -0.026771 19.531757
v 20.672869 2.031105 19.531757
v 14.621973 -0.026771 20.790508
v 20.672869 2.024624 20.790508
v 13.952694 1.024269 20.790508
v 20.634514 0.980065 20.790508
v 17.413797 0.228119 18.875517
v 17.427071 1.239597 18.877327
v 17.413797 0.228119 21.393017
v 17.435862 1.423924 21.312660
v 17.413797 1.279159 20.134268
v 17.413797 0.228119 20.134268
v 17.413797 0.228119 19.504892
v 17.413797 1.279159 19.504892
v 17.413797 1.279159 20.763641
v 17.413797 0.228119 20.763641
v 15.816033 -0.026771 18.902382
v 15.816033 1.024269 21.881683
v 15.816033 -0.026771 20.161133
v 15.816033 -0.026771 19.531757
v 15.816033 -0.026771 20.790508
v 15.816033 1.024269 19.114428
v 15.816033 -0.026771 21.419884
v 15.816033 1.024269 20.161133
v 15.816033 1.024269 19.531757
v 15.816033 1.024269 20.790508
v 19.083832 1.977293 18.902382
v 19.083832 0.926252 21.419884
v 19.083832 1.977293 20.161133
v 19.083832 1.977293 19.531757
v 19.083832 1.977293 20.790508
v 19.083832 0.926252 18.902382
v 19.083832 1.977293 21.419884
v 19.083832 0.926252 20.161133
v 19.083832 0.926252 19.531757
v 19.083832 0.926252 20.790508
v 19.878349 1.992605 18.902382
v 19.878349 0.941565 21.419884
v 19.878349 1.992605 20.161133
v 19.878349 1.992605 19.531757
v 19.878349 1.992605 20.790508
v 19.878349 0.941565 18.902382
v 19.864258 2.373725 21.388748
v 19.878349 0.941565 20.161133
v 19.878349 0.941565 19.531757
v 19.878349 0.941565 20.790508
v 18.259405 0.818891 18.902382
v 18.259405 1.869931 21.419884
v 18.259405 0.818891 20.161133
v 18.259405 0.818891 19.531757
v 18.259405 0.818891 20.790508
v 18.230213 2.052712 18.875233
v 18.259405 0.818891 21.419884
v 18.234373 1.929672 20.153767
v 18.245232 1.969945 19.516726
v 18.259405 1.869931 20.790508
v 16.568174 1.089452 19.002415
v 16.625505 -0.026771 21.419884
v 16.625505 1.024269 20.161133
v 16.625505 1.024269 19.531757
v 16.625505 1.024269 20.790508
v 16.625505 -0.026771 18.902382
v 16.625505 1.256425 21.324755
v 16.625505 -0.026771 20.161133
v 16.625505 -0.026771 19.531757
v 16.625505 -0.026771 20.790508
v 15.006561 -0.026771 18.902382
v 15.006561 1.024269 21.419884
v 15.006561 -0.026771 20.161133
v 15.006561 -0.026771 19.531757
v 15.006561 -0.026771 20.790508
v 15.006561 1.024269 19.066109
v 15.006561 -0.026771 21.419884
v 15.006561 1.024269 20.161133
v 15.006561 1.024269 19.531757
v 15.006561 1.024269 20.790508
v 14.343659 0.498749 21.419884
v 14.343659 0.498749 18.902382
v 20.672869 1.505585 18.902382
v 20.672869 1.505585 21.419884
v 20.672869 1.505585 20.161133
v 14.229442 0.498749 20.161133
v 20.672869 1.505585 19.531757
v 14.229442 0.498749 19.531757
v 14.229442 0.498749 20.790508
v 20.672869 1.505585 20.790508
v 17.413797 0.753639 21.393017
v 17.413797 0.753639 18.875517
v 15.816033 0.498749 18.902382
v 15.816033 0.498749 21.701864
v 19.083832 1.451772 21.419884
v 19.083832 1.451772 18.902382
v 19.878349 1.467085 21.419884
v 19.878349 1.467085 18.902382
v 18.259405 1.344411 18.902382
v 18.259405 1.344411 21.419884
v 16.654907 0.554371 21.388008
v 16.625505 0.498749 18.902382
v 15.006561 0.498749 18.902382
v 15.006561 0.498749 21.419884
v 14.621973 -0.026771 20.790508
v 14.621973 -0.026771 21.419884
v 14.621973 -0.026771 18.902382
v 14.621973 -0.026771 19.531757
v 14.621973 -0.026771 20.161133
vt 0.500000 0.187500
vt 0.625000 0.187500
vt 0.625000 0.250000
vt 0.500000 0.250000
vt 0.500000 0.469327
vt 0.625000 0.469327
vt 0.625000 0.500000
vt 0.500000 0.500000
vt 0.500000 0.687500
vt 0.625000 0.687500
vt 0.625000 0.750000
vt 0.500000 0.750000
vt 0.500000 0.968750
vt 0.625000 0.968750
vt 0.625000 1.000000
vt 0.500000 1.000000
vt 0.344327 0.687500
vt 0.375000 0.687500
vt 0.375000 0.750000
vt 0.344327 0.750000
vt 0.843750 0.687500
vt 0.875000 0.687500
vt 0.875000 0.750000
vt 0.843750 0.750000
vt 0.843750 0.562500
vt 0.875000 0.562500
vt 0.875000 0.625000
vt 0.843750 0.625000
vt 0.344327 0.562500
vt 0.375000 0.562500
vt 0.375000 0.625000
vt 0.344327 0.625000
vt 0.500000 0.562500
vt 0.625000 0.562500
vt 0.625000 0.625000
vt 0.500000 0.625000
vt 0.500000 0.062500
vt 0.625000 0.062500
vt 0.625000 0.125000
vt 0.500000 0.125000
vt 0.344327 0.500000
vt 0.375000 0.500000
vt 0.843750 0.500000
vt 0.875000 0.500000
vt 0.500000 0.000000
vt 0.625000 0.000000
vt 0.218750 0.625000
vt 0.250000 0.625000
vt 0.250000 0.687500
vt 0.218750 0.687500
vt 0.718173 0.625000
vt 0.750000 0.625000
vt 0.750000 0.687500
vt 0.718173 0.687500
vt 0.718173 0.500000
vt 0.750000 0.500000
vt 0.750000 0.562500
vt 0.718173 0.562500
vt 0.218750 0.500000
vt 0.250000 0.500000
vt 0.250000 0.562500
vt 0.218750 0.562500
vt 0.750000 0.750000
vt 0.718173 0.750000
vt 0.250000 0.750000
vt 0.218750 0.750000
vt 0.500000 0.843173
vt 0.625000 0.843173
vt 0.625000 0.875000
vt 0.500000 0.875000
vt 0.500000 0.343750
vt 0.625000 0.343750
vt 0.625000 0.375000
vt 0.500000 0.375000
vt 0.500000 0.281250
vt 0.625000 0.281250
vt 0.625000 0.312500
vt 0.500000 0.312500
vt 0.156250 0.687500
vt 0.187500 0.687500
vt 0.187500 0.750000
vt 0.156250 0.750000
vt 0.156250 0.562500
vt 0.187500 0.562500
vt 0.187500 0.625000
vt 0.156250 0.625000
vt 0.156250 0.500000
vt 0.187500 0.500000
vt 0.781250 0.625000
vt 0.812500 0.625000
vt 0.812500 0.687500
vt 0.781250 0.687500
vt 0.781250 0.500000
vt 0.812500 0.500000
vt 0.812500 0.562500
vt 0.781250 0.562500
vt 0.812500 0.750000
vt 0.781250 0.750000
vt 0.500000 0.906250
vt 0.625000 0.906250
vt 0.625000 0.937500
vt 0.500000 0.937500
vt 0.500000 0.780673
vt 0.625000 0.780673
vt 0.625000 0.811345
vt 0.500000 0.811345
vt 0.655673 0.687500
vt 0.686345 0.687500
vt 0.686345 0.750000
vt 0.655673 0.750000
vt 0.655673 0.562500
vt 0.686345 0.562500
vt 0.686345 0.625000
vt 0.655673 0.625000
vt 0.655673 0.500000
vt 0.686345 0.500000
vt 0.281827 0.625000
vt 0.313655 0.625000
vt 0.313655 0.687500
vt 0.281827 0.687500
vt 0.281827 0.500000
vt 0.313655 0.500000
vt 0.313655 0.562500
vt 0.281827 0.562500
vt 0.313655 0.750000
vt 0.281827 0.750000
vt 0.500000 0.406827
vt 0.625000 0.406827
vt 0.625000 0.438655
vt 0.500000 0.438655
vt 0.125000 0.625000
vt 0.125000 0.687500
vt 0.125000 0.500000
vt 0.125000 0.562500
vt 0.125000 0.750000
vt 0.375000 0.937500
vt 0.375000 0.968750
vt 0.375000 0.250000
vt 0.375000 0.281250
vt 0.375000 0.312500
vt 0.375000 0.343750
vt 0.375000 0.875000
vt 0.375000 0.906250
vt 0.375000 0.811345
vt 0.375000 0.843173
vt 0.375000 0.375000
vt 0.375000 0.406827
vt 0.375000 0.438655
vt 0.375000 0.469327
vt 0.375000 0.780673
vt 0.375000 0.000000
vt 0.375000 0.062500
vt 0.375000 0.125000
vt 0.375000 0.187500
vt 0.375000 1.000000
vt 0.375000 0.250000
vt 0.000000 0.000000
vt 0.000000 0.000000
vt 0.000000 0.000000
vt 0.000000 0.000000
vt 0.000000 0.000000
vt 0.000000 0.000000
vt 0.000000 0.000000
vt 0.000000 0.000000
vt 0.000000 0.000000
vt 0.000000 0.000000
vt 0.000000 0.000000
vt 0.000000 0.000000
vn -0.9427 -0.2784 -0.1840
vn 0.0000 0.0000 -1.0000
vn 1.0000 0.0000 0.0000
vn 0.0000 0.0000 1.0000
vn 0.0556 -0.9984 0.0057
vn 0.0000 1.0000 0.0000
vn -0.0438 0.9969 -0.0653
vn 0.0501 -0.9987 0.0022
vn -0.9197 -0.3835 -0.0842
vn 0.0484 -0.9988 0.0000
vn -0.0559 0.9958 0.0719
vn -0.9563 -0.2923 -0.0013
vn -0.8968 -0.3612 0.2555
vn 0.0514 -0.9987 -0.0007
vn 0.3077 -0.9515 0.0000
vn -0.5976 0.8003 0.0496
vn -0.6769 0.7356 0.0260
vn -0.6304 0.7760 0.0193
vn -0.5198 0.8490 -0.0946
vn -0.1223 0.0688 0.9901
vn -0.1132 0.0890 -0.9896
vn 0.0281 0.3365 -0.9413
vn 0.0000 -1.0000 0.0000
vn -0.0365 0.9968 0.0708
vn -0.1872 0.9724 -0.1389
vn 0.4757 -0.0719 0.8767
vn 0.0140 0.0219 0.9997
vn -0.2474 0.9245 -0.2899
vn -0.0193 0.9998 0.0000
vn 0.1291 -0.9916 0.0000
vn 0.0166 -0.0216 -0.9996
vn -0.0443 0.9990 0.0051
vn -0.0484 0.9988 0.0000
vn 0.0947 0.9102 -0.4032
vn -0.0176 0.0194 0.9997
vn 0.0193 -0.9998 0.0000
vn 0.0327 -0.0208 -0.9992
vn 0.5727 -0.8198 0.0000
vn -0.1291 0.9916 0.0000
vn -0.0329 0.9990 0.0315
vn 0.0385 0.9972 0.0645
vn -0.0923 0.9945 0.0488
vn -0.0198 0.1040 0.9944
vn -0.2497 0.9161 -0.3137
vn -0.3077 0.9515 0.0000
vn -0.2360 0.9713 0.0305
vn -0.0800 0.2646 -0.9610
vn 0.1090 0.1678 -0.9798
vn -0.4125 -0.1536 0.8979
vn -0.1659 -0.2555 0.9525
vn 0.0057 0.0286 0.9996
vn 0.0318 0.0000 -0.9995
vn 0.1896 -0.2212 0.9566
vn -0.0341 0.0000 -0.9994
vn -0.0318 0.0000 0.9995
vn 0.9960 -0.0888 -0.0134
vn -0.8405 -0.5365 0.0763
vn -0.8012 -0.5984 0.0000
vn 0.9977 -0.0525 0.0439
vn 0.9765 -0.1909 0.0999
vn -0.8405 -0.5365 -0.0763
vn -0.9999 -0.0121 0.0025
usemtl None
s off
f 98/1/1 13/2/1 4/3/1 92/4/1
f 108/5/2 51/6/2 8/7/2 93/8/2
f 100/9/3 18/10/3 6/11/3 94/12/3
f 114/13/4 82/14/4 2/15/4 91/16/4
f 60/17/5 20/18/5 5/19/5 52/20/5
f 90/21/6 19/22/6 2/23/6 82/24/6
f 89/25/7 13/26/7 10/27/7 88/28/7
f 59/29/8 14/30/8 11/31/8 58/32/8
f 97/33/3 16/34/3 12/35/3 95/36/3
f 99/37/9 19/38/9 10/39/9 96/40/9
f 93/8/3 8/7/3 16/34/3 97/33/3
f 56/41/10 7/42/10 14/30/10 59/29/10
f 86/43/11 4/44/11 13/26/11 89/25/11
f 96/40/12 10/39/12 13/2/12 98/1/12
f 91/45/13 2/46/13 19/38/13 99/37/13
f 88/28/6 10/27/6 19/22/6 90/21/6
f 58/32/14 11/31/14 20/18/14 60/17/14
f 95/36/3 12/35/3 18/10/3 100/9/3
f 78/47/15 26/48/15 30/49/15 80/50/15
f 68/51/16 25/52/16 29/53/16 70/54/16
f 66/55/17 22/56/17 28/57/17 69/58/17
f 76/59/15 21/60/15 27/61/15 79/62/15
f 79/62/15 27/61/15 26/48/15 78/47/15
f 69/58/18 28/57/18 25/52/18 68/51/18
f 70/54/19 29/53/19 24/63/19 62/64/19
f 80/50/15 30/49/15 23/65/15 72/66/15
f 110/67/20 62/68/20 24/69/20 101/70/20
f 112/71/21 71/72/21 22/73/21 102/74/21
f 113/75/22 86/76/22 36/77/22 103/78/22
f 85/79/23 35/80/23 37/81/23 87/82/23
f 84/83/23 34/84/23 33/85/23 83/86/23
f 81/87/23 31/88/23 34/84/23 84/83/23
f 83/86/23 33/85/23 35/80/23 85/79/23
f 73/89/6 38/90/6 40/91/6 75/92/6
f 71/93/24 36/94/24 39/95/24 74/96/24
f 74/96/6 39/95/6 38/90/6 73/89/6
f 75/92/25 40/91/25 32/97/25 77/98/25
f 111/99/26 77/100/26 32/101/26 104/102/26
f 107/103/27 57/104/27 47/105/27 105/106/27
f 55/107/28 45/108/28 47/109/28 57/110/28
f 54/111/29 44/112/29 43/113/29 53/114/29
f 51/115/29 41/116/29 44/112/29 54/111/29
f 53/114/29 43/113/29 45/108/29 55/107/29
f 63/117/30 48/118/30 50/119/30 65/120/30
f 61/121/30 46/122/30 49/123/30 64/124/30
f 64/124/30 49/123/30 48/118/30 63/117/30
f 65/120/30 50/119/30 42/125/30 67/126/30
f 109/127/31 66/128/31 41/129/31 106/130/31
f 12/35/32 53/114/32 55/107/32 18/10/32
f 8/7/33 51/115/33 54/111/33 16/34/33
f 16/34/33 54/111/33 53/114/33 12/35/33
f 18/10/34 55/107/34 57/110/34 6/11/34
f 94/12/35 6/11/35 57/104/35 107/103/35
f 48/118/36 58/32/36 60/17/36 50/119/36
f 46/122/36 56/41/36 59/29/36 49/123/36
f 49/123/36 59/29/36 58/32/36 48/118/36
f 50/119/36 60/17/36 52/20/36 42/125/36
f 106/130/2 41/129/2 51/6/2 108/5/2
f 102/74/37 22/73/37 66/128/37 109/127/37
f 30/49/38 65/120/38 67/126/38 23/65/38
f 27/61/38 64/124/38 63/117/38 26/48/38
f 21/60/38 61/121/38 64/124/38 27/61/38
f 26/48/38 63/117/38 65/120/38 30/49/38
f 105/106/4 47/105/4 62/68/4 110/67/4
f 45/108/39 70/54/39 62/64/39 47/109/39
f 44/112/40 69/58/40 68/51/40 43/113/40
f 41/116/41 66/55/41 69/58/41 44/112/41
f 43/113/42 68/51/42 70/54/42 45/108/42
f 101/70/43 24/69/43 77/100/43 111/99/43
f 29/53/44 75/92/44 77/98/44 24/63/44
f 28/57/45 74/96/45 73/89/45 25/52/45
f 22/56/46 71/93/46 74/96/46 28/57/46
f 25/52/45 73/89/45 75/92/45 29/53/45
f 103/78/47 36/77/47 71/72/47 112/71/47
f 35/80/23 80/50/23 72/66/23 37/81/23
f 34/84/23 79/62/23 78/47/23 33/85/23
f 31/88/23 76/59/23 79/62/23 34/84/23
f 33/85/23 78/47/23 80/50/23 35/80/23
f 119/131/23 83/86/23 85/79/23 115/132/23
f 117/133/23 81/87/23 84/83/23 118/134/23
f 118/134/23 84/83/23 83/86/23 119/131/23
f 115/132/23 85/79/23 87/82/23 116/135/23
f 92/4/48 4/3/48 86/76/48 113/75/48
f 38/90/6 88/28/6 90/21/6 40/91/6
f 36/94/6 86/43/6 89/25/6 39/95/6
f 39/95/6 89/25/6 88/28/6 38/90/6
f 40/91/6 90/21/6 82/24/6 32/97/6
f 104/102/49 32/101/49 82/14/49 114/13/49
f 37/136/50 104/102/50 114/13/50 87/137/50
f 117/138/2 92/4/2 113/75/2 81/139/2
f 31/140/2 103/78/2 112/71/2 76/141/2
f 23/142/51 101/70/51 111/99/51 72/143/51
f 42/144/4 105/106/4 110/67/4 67/145/4
f 21/146/52 102/74/52 109/127/52 61/147/52
f 46/148/2 106/130/2 108/5/2 56/149/2
f 5/19/4 94/12/4 107/103/4 52/150/4
f 61/147/2 109/127/2 106/130/2 46/148/2
f 52/150/4 107/103/4 105/106/4 42/144/4
f 72/143/53 111/99/53 104/102/53 37/136/53
f 81/139/2 113/75/2 103/78/2 31/140/2
f 76/141/54 112/71/54 102/74/54 21/146/54
f 67/145/55 110/67/55 101/70/55 23/142/55
f 11/31/56 95/36/56 100/9/56 20/18/56
f 1/151/57 91/45/57 99/37/57 17/152/57
f 9/153/58 96/40/58 98/1/58 15/154/58
f 7/42/3 93/8/3 97/33/3 14/30/3
f 17/152/58 99/37/58 96/40/58 9/153/58
f 14/30/59 97/33/59 95/36/59 11/31/59
f 87/137/4 114/13/4 91/16/4 116/155/4
f 20/18/60 100/9/60 94/12/60 5/19/60
f 56/149/2 108/5/2 93/8/2 7/42/2
f 15/154/61 98/1/61 92/4/61 3/156/61
f 66/157/62 109/158/62 61/159/62 64/160/62 63/161/62 65/162/62 67/163/62 110/164/62 62/165/62 70/166/62 68/167/62 69/168/62
