# Blender v2.91.2 OBJ File: 'на отправку.blend'
# www.blender.org
mtllib 6.mtl
o Cube.001_Cube.002
v 8.193741 7.840159 -1.746740
v 7.159257 9.284549 -1.833629
v 8.193741 7.724393 -5.690160
v 7.042601 9.269828 -5.757655
v 15.386782 9.152673 -1.814043
v 15.497236 10.810978 -1.951489
v 15.386782 9.152673 -5.757463
v 15.377362 11.085736 -5.508821
v 8.193741 7.724393 -3.700720
v 7.263150 9.262511 -3.747933
v 15.386782 9.152673 -3.768022
v 15.386782 10.826145 -3.768022
v 7.042601 9.269828 -4.802107
v 15.386782 9.152673 -4.762743
v 8.193741 7.724393 -4.695440
v 15.432913 10.843135 -4.147660
v 8.193741 7.724393 -2.723730
v 15.386782 10.826145 -2.791032
v 7.263150 9.262511 -2.770943
v 15.386782 9.152673 -2.791032
v 11.365137 7.984894 -5.778579
v 11.365137 9.188869 -5.778579
v 11.500973 7.878468 -1.875379
v 11.339396 9.479087 -1.858387
v 11.365137 9.423618 -3.768022
v 11.365137 7.750145 -3.768022
v 11.365137 7.750145 -4.762742
v 11.365137 9.423618 -4.762742
v 11.339553 9.546608 -2.832157
v 11.365137 7.750145 -2.791032
v 13.534363 10.306571 -5.962316
v 13.654533 8.669839 -2.278765
v 13.527555 10.276531 -3.951065
v 13.663389 10.283915 -5.287144
v 13.534363 10.306571 -2.995885
v 13.534363 8.633098 -5.962316
v 13.534363 10.306571 -2.018896
v 13.534363 8.633098 -3.972875
v 13.534363 8.633098 -4.967595
v 13.534363 8.633098 -2.995885
v 14.376987 10.741787 -5.689825
v 14.386406 8.808723 -1.995045
v 14.332313 10.637247 -3.995883
v 14.432536 10.499186 -4.328662
v 14.332313 10.637247 -3.018893
v 14.386406 8.808723 -5.938465
v 14.496861 10.467030 -2.132492
v 14.386406 8.808723 -3.949025
v 14.386406 8.808723 -4.943745
v 14.386406 8.808723 -2.972035
v 12.391706 8.116720 -5.757463
v 12.391706 9.790194 -1.814043
v 12.391706 8.116720 -3.768022
v 12.391706 8.116720 -4.762742
v 12.391706 8.116720 -2.791032
v 12.391706 9.790194 -5.757463
v 12.511876 8.153461 -2.073912
v 12.384898 9.760154 -3.746212
v 12.520732 9.767538 -5.082291
v 12.366121 9.913183 -2.832157
v 9.354315 8.018449 -5.757463
v 9.164231 9.556389 -1.836936
v 9.354315 8.018449 -3.768022
v 9.354315 8.018449 -4.762742
v 9.354315 8.018449 -2.791032
v 9.164231 9.556389 -5.780356
v 9.354315 8.018449 -1.814043
v 9.654689 9.447082 -3.868356
v 9.654689 9.447082 -4.863076
v 9.164231 9.556389 -2.813926
v 10.397537 9.188869 -5.778579
v 10.533372 7.878468 -1.875379
v 10.946516 9.446747 -3.718137
v 10.946516 9.446747 -4.712857
v 10.330305 9.454797 -2.748350
v 10.397537 7.984894 -5.778579
v 10.304565 9.745015 -1.836822
v 10.359726 7.750145 -3.768022
v 10.359726 7.750145 -4.762742
v 10.359726 7.750145 -2.791032
v 8.739200 7.724170 -5.696420
v 8.393693 9.234494 -1.788750
v 8.739200 7.724170 -3.706980
v 8.739200 7.724170 -4.701700
v 8.739200 7.724170 -2.729990
v 8.393693 9.234494 -5.732170
v 8.739200 7.839936 -1.753000
v 8.045095 9.243134 -3.744334
v 8.393693 9.234494 -4.737450
v 8.045095 9.243134 -2.767344
v 7.570515 8.439974 -1.758540
v 7.343493 8.586882 -5.757463
v 15.386782 9.989409 -5.757463
v 15.386782 9.989409 -1.814043
v 15.386782 9.989409 -3.768022
v 7.343493 8.586882 -3.768022
v 15.386782 9.989409 -4.762742
v 7.343493 8.586882 -4.762742
v 7.343493 8.586882 -2.791032
v 15.386782 9.989409 -2.791032
v 11.702732 8.658312 -2.182280
v 11.365137 8.586882 -5.757463
v 13.610056 9.488097 -2.127481
v 13.534363 9.469834 -5.962316
v 14.386406 9.645460 -1.995045
v 14.386406 9.645460 -5.938465
v 12.391706 8.953457 -5.757463
v 12.514132 8.981545 -1.989614
v 9.354315 8.586882 -5.757463
v 9.388894 8.787759 -1.817270
v 10.650587 8.648487 -2.115294
v 10.359726 8.586882 -5.757463
v 8.393693 8.586659 -5.732170
v 8.393693 8.586659 -1.788750
v 7.343493 8.168513 -5.757463
v 15.386782 9.571041 -5.757463
v 15.386782 9.571041 -1.814043
v 15.386782 9.571041 -3.768022
v 7.343493 8.168513 -3.768022
v 15.386782 9.571041 -4.762742
v 7.343493 8.168513 -4.762742
v 7.343493 8.168513 -2.791032
v 15.386782 9.571041 -2.791032
v 11.593175 8.124265 -2.028976
v 11.365137 8.168513 -5.757463
v 13.654533 9.088207 -2.278765
v 13.534363 9.051466 -5.962316
v 14.386406 9.227092 -1.995045
v 14.386406 9.227092 -5.938465
v 12.391706 8.535089 -5.757463
v 12.558610 8.581656 -2.140898
v 9.354315 8.168513 -5.757463
v 9.388894 8.369390 -1.817270
v 10.541029 8.114439 -1.961990
v 10.359726 8.168513 -5.757463
v 8.393693 8.168291 -5.732170
v 8.393693 8.168291 -1.788750
v 7.469256 8.059156 -1.786536
v 7.444751 8.967699 -1.786047
v 7.343493 9.005250 -5.757463
v 15.386782 10.407778 -5.757463
v 15.497236 10.392610 -1.951489
v 15.386782 10.407778 -3.768022
v 7.343493 9.005250 -3.768022
v 15.386782 10.407778 -4.762742
v 7.343493 9.005250 -4.762742
v 7.343493 9.005250 -2.791032
v 15.386782 10.407778 -2.791032
v 11.610530 9.014503 -2.049800
v 11.365137 9.005250 -5.757463
v 13.610056 9.906466 -2.127481
v 13.534363 9.888203 -5.962316
v 14.496861 10.048661 -2.132492
v 14.386406 10.063828 -5.938465
v 12.391706 9.371825 -5.757463
v 12.467399 9.390089 -1.922628
v 9.354315 9.005250 -5.757463
v 9.354315 9.005250 -1.814043
v 10.605119 9.014503 -2.049800
v 10.359726 9.005250 -5.757463
v 8.393693 9.005028 -5.732170
v 8.393693 9.005028 -1.788750
vt 0.562500 0.186938
vt 0.625000 0.186938
vt 0.625000 0.250000
vt 0.562500 0.250000
vt 0.562500 0.469408
vt 0.625000 0.469408
vt 0.625000 0.500000
vt 0.562500 0.500000
vt 0.562500 0.688062
vt 0.625000 0.688062
vt 0.625000 0.750000
vt 0.562500 0.750000
vt 0.562500 0.968750
vt 0.625000 0.968750
vt 0.625000 1.000000
vt 0.562500 1.000000
vt 0.344408 0.688062
vt 0.375000 0.688062
vt 0.375000 0.750000
vt 0.344408 0.750000
vt 0.853386 0.688062
vt 0.875000 0.688062
vt 0.875000 0.750000
vt 0.843750 0.750000
vt 0.843750 0.563062
vt 0.875000 0.563062
vt 0.875000 0.626124
vt 0.853386 0.626124
vt 0.344408 0.563062
vt 0.375000 0.563062
vt 0.375000 0.626124
vt 0.344408 0.626124
vt 0.562500 0.563062
vt 0.625000 0.563062
vt 0.625000 0.626124
vt 0.562500 0.626124
vt 0.562500 0.061938
vt 0.625000 0.061938
vt 0.625000 0.123876
vt 0.562500 0.123876
vt 0.344408 0.500000
vt 0.375000 0.500000
vt 0.843750 0.500000
vt 0.875000 0.500000
vt 0.562500 0.000000
vt 0.625000 0.000000
vt 0.218750 0.626124
vt 0.250000 0.626124
vt 0.250000 0.688062
vt 0.218750 0.688062
vt 0.718092 0.626124
vt 0.750000 0.626124
vt 0.750000 0.688062
vt 0.718092 0.688062
vt 0.718092 0.500000
vt 0.750000 0.500000
vt 0.750000 0.563062
vt 0.718092 0.563062
vt 0.218750 0.500000
vt 0.250000 0.500000
vt 0.250000 0.563062
vt 0.218750 0.563062
vt 0.750000 0.750000
vt 0.718092 0.750000
vt 0.250000 0.750000
vt 0.218750 0.750000
vt 0.562500 0.843092
vt 0.625000 0.843092
vt 0.625000 0.875000
vt 0.562500 0.875000
vt 0.562500 0.343750
vt 0.625000 0.343750
vt 0.625000 0.375000
vt 0.562500 0.375000
vt 0.562500 0.780592
vt 0.625000 0.780592
vt 0.756904 0.807576
vt 0.694404 0.807576
vt 0.655592 0.688062
vt 0.682577 0.675075
vt 0.682577 0.737013
vt 0.655592 0.750000
vt 0.655592 0.563062
vt 0.682577 0.550075
vt 0.682576 0.613137
vt 0.655592 0.626124
vt 0.655592 0.500000
vt 0.682577 0.487013
vt 0.281908 0.626124
vt 0.317423 0.613137
vt 0.317423 0.675075
vt 0.281908 0.688062
vt 0.281908 0.500000
vt 0.317423 0.487013
vt 0.317423 0.550075
vt 0.281908 0.563062
vt 0.317423 0.737013
vt 0.281908 0.750000
vt 0.562500 0.406908
vt 0.625000 0.406908
vt 0.756904 0.442423
vt 0.694404 0.442423
vt 0.562500 0.281250
vt 0.625000 0.281250
vt 0.627309 0.306044
vt 0.562500 0.312500
vt 0.156250 0.688062
vt 0.187500 0.688062
vt 0.187500 0.750000
vt 0.156250 0.750000
vt 0.156250 0.563062
vt 0.187500 0.563062
vt 0.187500 0.626124
vt 0.156250 0.626124
vt 0.156250 0.500000
vt 0.187500 0.500000
vt 0.781250 0.626124
vt 0.816704 0.626185
vt 0.816942 0.687899
vt 0.781250 0.688062
vt 0.781250 0.500000
vt 0.816013 0.499820
vt 0.816013 0.562882
vt 0.781250 0.563062
vt 0.816342 0.749534
vt 0.781250 0.750000
vt 0.562500 0.906250
vt 0.625000 0.906250
vt 0.627309 0.943956
vt 0.562500 0.937500
vt 0.125000 0.626124
vt 0.125000 0.688062
vt 0.125000 0.500000
vt 0.125000 0.563062
vt 0.125000 0.750000
vt 0.437500 0.937500
vt 0.500000 0.937500
vt 0.500000 0.968750
vt 0.437500 0.968750
vt 0.437500 0.250000
vt 0.500000 0.250000
vt 0.500000 0.281250
vt 0.437500 0.281250
vt 0.437500 0.312500
vt 0.500000 0.312500
vt 0.500000 0.343750
vt 0.437500 0.343750
vt 0.437500 0.875000
vt 0.500000 0.875000
vt 0.500000 0.906250
vt 0.437500 0.906250
vt 0.569404 0.807576
vt 0.631904 0.807577
vt 0.500000 0.843092
vt 0.437500 0.843092
vt 0.437500 0.375000
vt 0.500000 0.375000
vt 0.500000 0.406908
vt 0.437500 0.406908
vt 0.569404 0.442423
vt 0.631904 0.442424
vt 0.500000 0.469408
vt 0.437500 0.469408
vt 0.437500 0.750000
vt 0.500000 0.750000
vt 0.500000 0.780592
vt 0.437500 0.780592
vt 0.437500 0.626124
vt 0.500000 0.626124
vt 0.500000 0.688062
vt 0.437500 0.688062
vt 0.437500 0.000000
vt 0.500000 0.000000
vt 0.500000 0.061938
vt 0.437500 0.061938
vt 0.437500 0.123876
vt 0.500000 0.123876
vt 0.500000 0.186938
vt 0.437500 0.186938
vt 0.437500 0.500000
vt 0.500000 0.500000
vt 0.500000 0.563062
vt 0.437500 0.563062
vt 0.500000 1.000000
vt 0.437500 1.000000
vt 0.375000 0.186938
vt 0.375000 0.250000
vt 0.375000 0.469408
vt 0.375000 0.968750
vt 0.375000 1.000000
vt 0.375000 0.061938
vt 0.375000 0.123876
vt 0.375000 0.000000
vt 0.375000 0.843092
vt 0.375000 0.875000
vt 0.375000 0.343750
vt 0.375000 0.375000
vt 0.375000 0.780592
vt 0.506904 0.807577
vt 0.375000 0.406908
vt 0.506904 0.442423
vt 0.375000 0.281250
vt 0.375000 0.312500
vt 0.375000 0.906250
vt 0.375000 0.937500
vn -0.6603 -0.7510 0.0000
vn 0.0512 0.3445 -0.9374
vn 0.9915 0.0000 -0.1304
vn -0.0188 0.0770 0.9969
vn 0.3251 -0.9457 0.0000
vn 0.0347 0.9993 -0.0114
vn 0.0256 0.9997 0.0010
vn 0.9965 -0.0773 0.0325
vn -0.9545 -0.2981 0.0000
vn 0.9996 -0.0136 -0.0250
vn 0.0261 0.9997 0.0000
vn -0.8061 -0.5857 0.0847
vn -0.8432 -0.5376 -0.0054
vn 0.0248 0.9997 0.0000
vn 1.0000 0.0000 0.0000
vn 0.0000 -1.0000 0.0000
vn -0.3200 0.9359 -0.1473
vn -0.4057 0.9102 -0.0832
vn 0.0000 -0.9743 -0.2252
vn -0.3003 0.9537 -0.0145
vn -0.3104 0.9459 0.0944
vn 0.0000 -0.9903 0.1388
vn 0.0290 -0.3173 0.9479
vn 0.0000 -0.1142 -0.9935
vn 0.0836 -0.1235 0.9888
vn -0.2591 0.9595 0.1105
vn -0.2821 0.9525 -0.1145
vn -0.4697 0.8690 0.1558
vn -0.3965 0.9179 -0.0129
vn 0.4118 -0.9113 0.0000
vn 0.4085 -0.9125 -0.0217
vn -0.1765 0.0000 -0.9843
vn -0.1763 0.9843 0.0000
vn -0.3486 0.9202 0.1782
vn -0.2072 0.9565 -0.2051
vn -0.2754 0.9502 0.1459
vn -0.1780 0.0000 0.9840
vn 0.2019 -0.9794 0.0000
vn 0.1933 -0.9811 0.0076
vn 0.0901 0.2210 -0.9711
vn 0.0268 -0.0350 -0.9990
vn 0.3043 -0.9513 0.0485
vn 0.3363 -0.9418 0.0000
vn 0.2355 -0.9653 -0.1127
vn 0.2622 -0.2062 0.9427
vn -0.3570 0.9320 0.0620
vn -0.4171 0.9081 -0.0374
vn -0.3937 0.9131 0.1059
vn -0.3775 0.9214 -0.0927
vn -0.0353 -0.0379 -0.9987
vn 0.3629 -0.9302 0.0551
vn 0.4316 -0.9021 0.0000
vn 0.0444 0.9984 -0.0336
vn 0.1515 0.9766 -0.1526
vn 0.0003 1.0000 0.0000
vn -0.0329 0.9878 -0.1522
vn 0.1062 -0.1060 0.9887
vn -0.0337 -0.3348 0.9417
vn 0.0784 0.9902 -0.1159
vn 0.0552 0.9985 0.0000
vn 0.0079 0.9726 -0.2323
vn -0.0560 0.9946 -0.0873
vn -0.0093 -0.0617 -0.9981
vn -0.1808 -0.9800 0.0830
vn -0.2578 -0.9662 0.0000
vn -0.1459 -0.9823 -0.1174
vn -0.0004 -1.0000 0.0000
vn 0.0009 -0.9931 0.1177
vn 0.0213 0.0126 -0.9997
vn -0.1913 0.9766 -0.0987
vn -0.2433 0.9628 0.1174
vn -0.1461 0.9888 -0.0299
vn -0.3153 0.9471 0.0604
vn 0.0353 0.0379 0.9987
vn 0.0286 0.0000 0.9996
vn 0.0241 0.0000 -0.9997
vn 0.0000 0.0000 -1.0000
vn 0.0588 0.2643 0.9627
vn 0.1998 0.1333 0.9707
vn -0.0263 0.0000 -0.9997
vn 0.2608 -0.3161 0.9122
vn 0.0280 0.0000 -0.9996
vn -0.2265 -0.1890 0.9555
vn -0.0478 0.0055 0.9988
vn -0.9760 0.1172 0.1838
vn -1.0000 0.0000 0.0000
vn 0.0241 -0.0380 0.9990
vn 0.1780 0.0000 -0.9840
vn -0.4630 -0.8864 0.0000
vn -0.0039 0.1293 0.9916
vn -0.3895 -0.9206 0.0277
vn 0.0369 0.3040 0.9520
vn 0.0000 0.1142 -0.9935
vn -0.3615 0.0000 0.9324
vn 0.0018 0.0351 -0.9994
vn 0.1188 0.0718 0.9903
vn -0.0391 -0.0827 -0.9958
vn 0.1111 0.1426 0.9835
vn 0.0276 0.4414 0.8969
vn -0.0093 0.0621 -0.9980
vn 0.0118 -0.0995 -0.9950
vn 0.0379 0.0745 0.9965
vn 0.0279 -0.0036 0.9996
vn 0.0327 -0.2584 0.9655
vn 0.2027 -0.0871 0.9754
vn 0.1818 -0.0692 0.9809
vn -0.2893 0.3789 0.8790
vn -0.1070 0.1780 0.9782
vn -0.0737 -0.2642 0.9616
vn -0.9811 -0.1262 0.1467
vn 0.0153 0.0311 0.9994
vn 0.9878 -0.1431 -0.0613
usemtl None
s off
f 146/1/1 13/2/1 4/3/1 140/4/1
f 154/5/2 41/6/2 8/7/2 141/8/2
f 148/9/3 18/10/3 6/11/3 142/12/3
f 162/13/4 82/14/4 2/15/4 139/16/4
f 50/17/5 20/18/5 5/19/5 42/20/5
f 90/21/6 19/22/6 2/23/6 82/24/6
f 89/25/7 13/26/7 10/27/7 88/28/7
f 49/29/5 14/30/5 11/31/5 48/32/5
f 145/33/8 16/34/8 12/35/8 143/36/8
f 147/37/9 19/38/9 10/39/9 144/40/9
f 141/8/10 8/7/10 16/34/10 145/33/10
f 46/41/5 7/42/5 14/30/5 49/29/5
f 86/43/11 4/44/11 13/26/11 89/25/11
f 144/40/12 10/39/12 13/2/12 146/1/12
f 139/45/13 2/46/13 19/38/13 147/37/13
f 88/28/14 10/27/14 19/22/14 90/21/14
f 48/32/5 11/31/5 20/18/5 50/17/5
f 143/36/15 12/35/15 18/10/15 148/9/15
f 78/47/16 26/48/16 30/49/16 80/50/16
f 58/51/17 25/52/17 29/53/17 60/54/17
f 56/55/18 22/56/18 28/57/18 59/58/18
f 76/59/19 21/60/19 27/61/19 79/62/19
f 79/62/16 27/61/16 26/48/16 78/47/16
f 59/58/20 28/57/20 25/52/20 58/51/20
f 60/54/21 29/53/21 24/63/21 52/64/21
f 80/50/22 30/49/22 23/65/22 72/66/22
f 156/67/23 52/68/23 24/69/23 149/70/23
f 160/71/24 71/72/24 22/73/24 150/74/24
f 153/75/25 47/76/25 37/77/25 151/78/25
f 45/79/26 35/80/26 37/81/26 47/82/26
f 44/83/27 34/84/27 33/85/27 43/86/27
f 41/87/28 31/88/28 34/84/28 44/83/28
f 43/86/29 33/85/29 35/80/29 45/79/29
f 53/89/30 38/90/30 40/91/30 55/92/30
f 51/93/30 36/94/30 39/95/30 54/96/30
f 54/96/30 39/95/30 38/90/30 53/89/30
f 55/92/31 40/91/31 32/97/31 57/98/31
f 155/99/32 56/100/32 31/101/32 152/102/32
f 12/35/33 43/86/33 45/79/33 18/10/33
f 8/7/34 41/87/34 44/83/34 16/34/34
f 16/34/35 44/83/35 43/86/35 12/35/35
f 18/10/36 45/79/36 47/82/36 6/11/36
f 142/12/37 6/11/37 47/76/37 153/75/37
f 38/90/38 48/32/38 50/17/38 40/91/38
f 36/94/38 46/41/38 49/29/38 39/95/38
f 39/95/38 49/29/38 48/32/38 38/90/38
f 40/91/39 50/17/39 42/20/39 32/97/39
f 152/102/40 31/101/40 41/6/40 154/5/40
f 150/74/41 22/73/41 56/100/41 155/99/41
f 30/49/42 55/92/42 57/98/42 23/65/42
f 27/61/43 54/96/43 53/89/43 26/48/43
f 21/60/44 51/93/44 54/96/44 27/61/44
f 26/48/43 53/89/43 55/92/43 30/49/43
f 151/78/45 37/77/45 52/68/45 156/67/45
f 35/80/46 60/54/46 52/64/46 37/81/46
f 34/84/47 59/58/47 58/51/47 33/85/47
f 31/88/48 56/55/48 59/58/48 34/84/48
f 33/85/49 58/51/49 60/54/49 35/80/49
f 161/103/50 86/104/50 66/105/50 157/106/50
f 85/107/51 65/108/51 67/109/51 87/110/51
f 84/111/52 64/112/52 63/113/52 83/114/52
f 81/115/52 61/116/52 64/112/52 84/111/52
f 83/114/52 63/113/52 65/108/52 85/107/52
f 73/117/53 68/118/53 70/119/53 75/120/53
f 71/121/54 66/122/54 69/123/54 74/124/54
f 74/124/55 69/123/55 68/118/55 73/117/55
f 75/120/56 70/119/56 62/125/56 77/126/56
f 159/127/57 77/128/57 62/129/57 158/130/57
f 149/70/58 24/69/58 77/128/58 159/127/58
f 29/53/59 75/120/59 77/126/59 24/63/59
f 28/57/60 74/124/60 73/117/60 25/52/60
f 22/56/61 71/121/61 74/124/61 28/57/61
f 25/52/62 73/117/62 75/120/62 29/53/62
f 157/106/63 66/105/63 71/72/63 160/71/63
f 65/108/64 80/50/64 72/66/64 67/109/64
f 64/112/65 79/62/65 78/47/65 63/113/65
f 61/116/66 76/59/66 79/62/66 64/112/66
f 63/113/65 78/47/65 80/50/65 65/108/65
f 9/131/67 83/114/67 85/107/67 17/132/67
f 3/133/67 81/115/67 84/111/67 15/134/67
f 15/134/67 84/111/67 83/114/67 9/131/67
f 17/132/68 85/107/68 87/110/68 1/135/68
f 140/4/69 4/3/69 86/104/69 161/103/69
f 68/118/70 88/28/70 90/21/70 70/119/70
f 66/122/71 86/43/71 89/25/71 69/123/71
f 69/123/72 89/25/72 88/28/72 68/118/72
f 70/119/73 90/21/73 82/24/73 62/125/73
f 158/130/74 62/129/74 82/14/74 162/13/74
f 133/136/75 110/137/75 114/138/75 137/139/75
f 115/140/76 92/141/76 113/142/76 136/143/76
f 132/144/77 109/145/77 112/146/77 135/147/77
f 124/148/78 101/149/78 111/150/78 134/151/78
f 134/151/79 111/150/79 110/137/79 133/136/79
f 136/143/80 113/142/80 109/145/80 132/144/80
f 126/152/81 103/153/81 108/154/81 131/155/81
f 125/156/77 102/157/77 107/158/77 130/159/77
f 127/160/82 104/161/82 106/162/82 129/163/82
f 117/164/37 94/165/37 105/166/37 128/167/37
f 130/159/32 107/158/32 104/161/32 127/160/32
f 128/167/83 105/166/83 103/153/83 126/152/83
f 135/147/77 112/146/77 102/157/77 125/156/77
f 131/155/84 108/154/84 101/149/84 124/148/84
f 118/168/15 95/169/15 100/170/15 123/171/15
f 138/172/85 91/173/85 99/174/85 122/175/85
f 119/176/86 96/177/86 98/178/86 121/179/86
f 116/180/15 93/181/15 97/182/15 120/183/15
f 122/175/86 99/174/86 96/177/86 119/176/86
f 120/183/15 97/182/15 95/169/15 118/168/15
f 137/139/87 114/138/87 91/184/87 138/185/87
f 123/171/15 100/170/15 94/165/15 117/164/15
f 129/163/88 106/162/88 93/181/88 116/180/88
f 121/179/86 98/178/86 92/141/86 115/140/86
f 15/186/89 121/179/89 115/140/89 3/187/89
f 46/188/88 129/163/88 116/180/88 7/42/88
f 20/18/15 123/171/15 117/164/15 5/19/15
f 87/189/90 137/139/90 138/185/90 1/190/90
f 14/30/15 120/183/15 118/168/15 11/31/15
f 17/191/89 122/175/89 119/176/89 9/192/89
f 7/42/15 116/180/15 120/183/15 14/30/15
f 9/192/89 119/176/89 121/179/89 15/186/89
f 1/193/91 138/172/91 122/175/91 17/191/91
f 11/31/15 118/168/15 123/171/15 20/18/15
f 57/194/92 131/155/92 124/148/92 23/195/92
f 76/196/93 135/147/93 125/156/93 21/197/93
f 42/198/94 128/167/94 126/152/94 32/199/94
f 51/200/32 130/159/32 127/160/32 36/201/32
f 5/19/37 117/164/37 128/167/37 42/198/37
f 36/201/82 127/160/82 129/163/82 46/188/82
f 21/197/95 125/156/95 130/159/95 51/200/95
f 32/199/96 126/152/96 131/155/96 57/194/96
f 81/202/97 136/143/97 132/144/97 61/203/97
f 72/204/98 134/151/98 133/136/98 67/205/98
f 23/195/99 124/148/99 134/151/99 72/204/99
f 61/203/100 132/144/100 135/147/100 76/196/100
f 3/187/101 115/140/101 136/143/101 81/202/101
f 67/205/102 133/136/102 137/139/102 87/189/102
f 110/137/103 158/130/103 162/13/103 114/138/103
f 92/141/76 140/4/76 161/103/76 113/142/76
f 109/145/77 157/106/77 160/71/77 112/146/77
f 101/149/104 149/70/104 159/127/104 111/150/104
f 111/150/105 159/127/105 158/130/105 110/137/105
f 113/142/80 161/103/80 157/106/80 109/145/80
f 103/153/106 151/78/106 156/67/106 108/154/106
f 102/157/77 150/74/77 155/99/77 107/158/77
f 104/161/82 152/102/82 154/5/82 106/162/82
f 94/165/107 142/12/107 153/75/107 105/166/107
f 107/158/32 155/99/32 152/102/32 104/161/32
f 105/166/108 153/75/108 151/78/108 103/153/108
f 112/146/77 160/71/77 150/74/77 102/157/77
f 108/154/109 156/67/109 149/70/109 101/149/109
f 95/169/15 143/36/15 148/9/15 100/170/15
f 91/173/110 139/45/110 147/37/110 99/174/110
f 96/177/86 144/40/86 146/1/86 98/178/86
f 93/181/15 141/8/15 145/33/15 97/182/15
f 99/174/86 147/37/86 144/40/86 96/177/86
f 97/182/15 145/33/15 143/36/15 95/169/15
f 114/138/111 162/13/111 139/16/111 91/184/111
f 100/170/112 148/9/112 142/12/112 94/165/112
f 106/162/88 154/5/88 141/8/88 93/181/88
f 98/178/86 146/1/86 140/4/86 92/141/86
