# Blender v2.91.2 OBJ File: 'на отправку.blend'
# www.blender.org
mtllib 8.mtl
o Cube.004_Cube.005
v 36.818375 9.539780 -1.715004
v 35.554684 11.128119 -1.855190
v 36.818375 9.539780 -5.658424
v 35.977142 11.257109 -5.572984
v 41.992924 9.208114 -1.620874
v 42.403442 11.310978 -2.296636
v 41.995728 9.364764 -5.444608
v 42.972828 11.176707 -5.351856
v 39.354828 8.156034 -5.565320
v 38.807407 11.231038 -5.619754
v 39.400826 8.178562 -2.353367
v 39.354828 11.234335 -2.595267
v 36.179943 10.568662 -1.765065
v 36.179943 10.568662 -5.708485
v 43.350899 10.884836 -5.356040
v 41.833305 10.664907 -1.871129
v 39.354828 10.207543 -2.595267
v 39.354828 10.207543 -5.757463
v 36.513012 9.950208 -5.724004
v 42.948879 10.240802 -5.539322
v 41.867790 10.093558 -1.837673
v 39.400826 8.691958 -2.413649
v 39.354828 8.669430 -5.565320
v 36.513012 9.950208 -1.780584
v 37.970810 8.652645 -5.704630
v 37.774372 11.234335 -1.814043
v 37.554512 11.174384 -5.345010
v 37.970810 8.652645 -1.866875
v 37.774372 10.207543 -5.757463
v 37.774372 10.207543 -1.814043
v 37.970810 9.166040 -1.866875
v 37.970810 9.166040 -5.704630
v 40.706764 11.350431 -5.551311
v 40.738846 8.652645 -1.866875
v 40.738846 8.652645 -5.704630
v 40.935284 11.234335 -2.222881
v 40.746212 10.207543 -2.222881
v 40.575005 11.317127 -5.833330
v 40.549774 9.166040 -5.704630
v 40.549774 9.166040 -1.866875
v 37.008068 9.180752 -5.757463
v 37.008068 11.234335 -1.814043
v 37.008068 10.207543 -1.814043
v 37.008068 9.694147 -1.814043
v 36.791294 11.257109 -5.572984
v 37.008068 9.180752 -1.814043
v 37.008068 10.207543 -5.757463
v 37.008068 9.694147 -5.757463
v 41.834019 11.302077 -5.636597
v 41.440735 8.836658 -1.655552
v 42.508842 11.398897 -5.895657
v 40.896397 8.985794 -6.014534
v 41.206474 8.724907 -5.700108
v 41.477135 11.289325 -1.979560
v 41.109390 10.207543 -1.751716
v 40.896397 8.985794 -1.855314
v 40.145054 9.180752 -5.757463
v 40.145054 11.234335 -2.595267
v 39.955986 10.207543 -2.595267
v 40.003693 8.691958 -2.413649
v 39.736893 11.235995 -5.463834
v 40.192764 8.178562 -2.353367
v 39.955986 11.350876 -5.757463
v 40.145054 9.694147 -5.757463
v 38.320816 11.174384 -5.345010
v 38.542389 8.156034 -2.006185
v 38.540676 10.207543 -5.757463
v 38.542389 8.669430 -5.565320
v 38.542389 8.156034 -5.565320
v 38.540676 11.234335 -1.814043
v 38.540676 10.207543 -1.814043
v 38.542389 8.669430 -2.006185
v 36.818375 9.539780 -3.686714
v 36.080345 11.168175 -3.674861
v 42.036953 8.836983 -3.523664
v 43.287926 11.234335 -3.785753
v 39.354828 11.234335 -3.785753
v 39.354828 8.238706 -3.785753
v 43.293087 10.852663 -3.679542
v 36.179943 10.568662 -3.736775
v 36.646416 9.924451 -3.474120
v 43.155231 10.327746 -3.556051
v 37.764629 8.617560 -3.785753
v 37.774372 11.234335 -3.785753
v 40.935284 11.234335 -3.785753
v 40.945026 8.617560 -3.785753
v 36.998325 8.617560 -3.785753
v 37.008068 11.234335 -3.785753
v 41.725510 11.234335 -3.785753
v 41.484871 8.823977 -3.523664
v 40.145054 8.238706 -3.785753
v 40.145054 11.234335 -3.785753
v 38.540676 11.234335 -3.785753
v 38.540676 8.238706 -3.785753
v 36.193916 11.234335 -4.771607
v 42.036953 8.836983 -4.570785
v 36.179943 10.568662 -4.722630
v 36.664093 9.950178 -4.695890
v 36.818375 9.539780 -4.672569
v 43.287926 11.234335 -4.771607
v 39.354828 11.234335 -4.771607
v 39.354828 8.238706 -4.771607
v 43.160477 10.852663 -4.911546
v 43.059204 10.327746 -4.430822
v 37.764629 8.617560 -4.954498
v 37.774372 11.234335 -4.771607
v 40.935284 11.234335 -4.771607
v 40.945026 8.617560 -4.954498
v 36.998325 8.617560 -4.954498
v 37.008068 11.234335 -4.771607
v 41.725510 11.234335 -4.771607
v 41.484871 8.823977 -4.982046
v 40.145054 8.238706 -4.771607
v 40.145054 11.234335 -4.771607
v 38.540676 11.234335 -4.771607
v 38.540676 8.238706 -4.771607
v 36.818375 9.539780 -2.700859
v 43.287926 11.234335 -2.799898
v 39.354828 11.234335 -2.799898
v 39.354828 8.238706 -2.799898
v 43.204529 10.827421 -2.469648
v 43.098251 10.327746 -2.677168
v 37.764629 8.617560 -2.617007
v 37.774372 11.234335 -2.799898
v 40.935284 11.234335 -2.799898
v 40.945026 8.617560 -2.617007
v 36.998325 8.617560 -2.617007
v 37.008068 11.234335 -2.799898
v 41.725510 11.234335 -2.799898
v 41.484871 8.823977 -2.065282
v 40.145054 8.238706 -2.799898
v 40.145054 11.234335 -2.799898
v 38.540676 11.234335 -2.799898
v 38.540676 8.238706 -2.799898
v 35.950104 11.198271 -2.826709
v 42.036953 8.836983 -2.476543
v 36.179943 10.568662 -2.750920
v 36.513012 9.950208 -2.766439
vt 0.500000 0.187500
vt 0.625000 0.187500
vt 0.625000 0.250000
vt 0.500000 0.250000
vt 0.500000 0.468750
vt 0.625000 0.468750
vt 0.625000 0.500000
vt 0.500000 0.500000
vt 0.500000 0.687500
vt 0.625000 0.687500
vt 0.625000 0.750000
vt 0.500000 0.750000
vt 0.500000 0.967804
vt 0.625000 0.967804
vt 0.625000 1.000000
vt 0.500000 1.000000
vt 0.343750 0.687500
vt 0.375000 0.687500
vt 0.375000 0.750000
vt 0.343750 0.750000
vt 0.842804 0.687500
vt 0.875000 0.687500
vt 0.875000 0.750000
vt 0.842804 0.750000
vt 0.718750 0.687500
vt 0.750000 0.687500
vt 0.750000 0.750000
vt 0.718750 0.750000
vt 0.217804 0.687500
vt 0.250000 0.687500
vt 0.250000 0.750000
vt 0.217804 0.750000
vt 0.500000 0.843750
vt 0.625000 0.843750
vt 0.625000 0.875000
vt 0.500000 0.875000
vt 0.500000 0.342804
vt 0.625000 0.342804
vt 0.625000 0.375000
vt 0.500000 0.375000
vt 0.437500 0.342804
vt 0.437500 0.375000
vt 0.437500 0.843750
vt 0.437500 0.875000
vt 0.437500 0.967804
vt 0.437500 1.000000
vt 0.437500 0.687500
vt 0.437500 0.750000
vt 0.437500 0.468750
vt 0.437500 0.500000
vt 0.437500 0.187500
vt 0.437500 0.250000
vt 0.375000 0.187500
vt 0.375000 0.250000
vt 0.375000 0.468750
vt 0.375000 0.500000
vt 0.375000 0.967804
vt 0.375000 1.000000
vt 0.375000 0.843750
vt 0.375000 0.875000
vt 0.375000 0.342804
vt 0.375000 0.375000
vt 0.375000 0.282196
vt 0.437500 0.282196
vt 0.437500 0.312500
vt 0.375000 0.312500
vt 0.375000 0.907196
vt 0.437500 0.907196
vt 0.437500 0.937500
vt 0.375000 0.937500
vt 0.500000 0.907196
vt 0.500000 0.937500
vt 0.500000 0.282196
vt 0.500000 0.312500
vt 0.625000 0.282196
vt 0.625000 0.312500
vt 0.157196 0.687500
vt 0.187500 0.687500
vt 0.187500 0.750000
vt 0.157196 0.750000
vt 0.782196 0.687500
vt 0.812500 0.687500
vt 0.812500 0.750000
vt 0.782196 0.750000
vt 0.625000 0.907196
vt 0.625000 0.937500
vt 0.375000 0.781250
vt 0.437500 0.781250
vt 0.437500 0.812500
vt 0.375000 0.812500
vt 0.375000 0.406250
vt 0.437500 0.406250
vt 0.437500 0.437500
vt 0.375000 0.437500
vt 0.500000 0.406250
vt 0.500000 0.437500
vt 0.500000 0.781250
vt 0.500000 0.812500
vt 0.625000 0.781250
vt 0.625000 0.812500
vt 0.656250 0.687500
vt 0.687500 0.687500
vt 0.687500 0.750000
vt 0.656250 0.750000
vt 0.281250 0.687500
vt 0.312500 0.687500
vt 0.312500 0.750000
vt 0.281250 0.750000
vt 0.625000 0.406250
vt 0.625000 0.437500
vt 0.125000 0.687500
vt 0.125000 0.750000
vt 0.187500 0.562500
vt 0.217804 0.562500
vt 0.217804 0.625000
vt 0.187500 0.625000
vt 0.750000 0.562500
vt 0.782196 0.562500
vt 0.782196 0.625000
vt 0.750000 0.625000
vt 0.687500 0.562500
vt 0.718750 0.562500
vt 0.718750 0.625000
vt 0.687500 0.625000
vt 0.250000 0.562500
vt 0.281250 0.562500
vt 0.281250 0.625000
vt 0.250000 0.625000
vt 0.312500 0.562500
vt 0.343750 0.562500
vt 0.343750 0.625000
vt 0.312500 0.625000
vt 0.625000 0.562500
vt 0.656250 0.562500
vt 0.656250 0.625000
vt 0.625000 0.625000
vt 0.812500 0.562500
vt 0.842804 0.562500
vt 0.842804 0.625000
vt 0.812500 0.625000
vt 0.125000 0.562500
vt 0.157196 0.562500
vt 0.157196 0.625000
vt 0.125000 0.625000
vt 0.375000 0.562500
vt 0.437500 0.562500
vt 0.437500 0.625000
vt 0.375000 0.625000
vt 0.375000 0.062500
vt 0.437500 0.062500
vt 0.437500 0.125000
vt 0.375000 0.125000
vt 0.500000 0.062500
vt 0.500000 0.125000
vt 0.500000 0.562500
vt 0.500000 0.625000
vt 0.875000 0.562500
vt 0.875000 0.625000
vt 0.625000 0.062500
vt 0.625000 0.125000
vt 0.343750 0.500000
vt 0.842804 0.500000
vt 0.875000 0.500000
vt 0.718750 0.500000
vt 0.750000 0.500000
vt 0.217804 0.500000
vt 0.250000 0.500000
vt 0.157196 0.500000
vt 0.187500 0.500000
vt 0.782196 0.500000
vt 0.812500 0.500000
vt 0.656250 0.500000
vt 0.687500 0.500000
vt 0.281250 0.500000
vt 0.312500 0.500000
vt 0.125000 0.500000
vt 0.500000 0.000000
vt 0.625000 0.000000
vt 0.437500 0.000000
vt 0.375000 0.000000
vn -0.9825 -0.1445 0.1173
vn 0.2260 0.9540 0.1970
vn 0.3987 0.3584 0.8441
vn 0.0102 0.0607 0.9981
vn 0.4016 -0.8682 0.2913
vn -0.0572 0.9981 0.0242
vn 0.0000 1.0000 0.0000
vn -0.0103 -0.9934 -0.1140
vn 0.0000 0.0000 1.0000
vn -0.2108 0.1841 -0.9600
vn 0.0000 -0.1240 -0.9923
vn 0.0000 0.1190 0.9929
vn 0.0647 0.0053 0.9979
vn 0.4965 -0.1716 0.8509
vn 0.3605 -0.1465 -0.9212
vn -0.8330 -0.5498 0.0625
vn -0.8736 -0.4821 0.0655
vn 0.5268 -0.5355 -0.6601
vn 0.7753 -0.2002 0.5991
vn 0.3382 0.1774 0.9242
vn 0.0000 0.1166 0.9932
vn 0.0000 0.0000 -1.0000
vn 0.0548 0.0000 -0.9985
vn 0.2368 0.0000 0.9716
vn 0.0704 -0.0889 0.9935
vn 0.0210 -0.0313 -0.9993
vn 0.1565 0.3114 -0.9373
vn -0.2598 -0.8885 0.3784
vn -0.2077 0.0644 0.9761
vn 0.1303 0.0240 -0.9912
vn -0.0420 -0.0356 -0.9985
vn -0.5195 0.1870 0.8337
vn -0.6102 0.2426 0.7542
vn -0.0330 0.9984 -0.0452
vn 0.5165 -0.8548 0.0505
vn -0.0364 0.9902 0.1348
vn -0.9564 -0.2770 0.0924
vn 0.0111 0.1836 -0.9829
vn -0.0647 -0.0053 -0.9979
vn -0.3382 -0.1774 -0.9242
vn 0.0548 0.0000 0.9985
vn 0.0210 -0.0313 0.9993
vn -0.0238 0.9926 -0.1191
vn 0.1742 0.2641 0.9486
vn 0.1052 -0.0493 0.9932
vn -0.2465 0.2205 0.9437
vn -0.3574 -0.5399 -0.7621
vn -0.1585 0.0548 -0.9858
vn 0.2463 -0.9647 0.0929
vn -0.0055 0.9938 0.1111
vn -0.1457 0.3213 -0.9357
vn 0.0000 -0.9911 -0.1335
vn -0.0405 -0.0624 -0.9972
vn -0.2363 0.0000 -0.9717
vn -0.5938 -0.1725 0.7859
vn -0.6022 0.1977 0.7735
vn -0.4250 0.0783 0.9018
vn 0.6924 0.0000 0.7215
vn 0.5792 0.0062 0.8151
vn 0.4006 0.0537 0.9147
vn 0.2368 0.0000 -0.9716
vn 0.0704 -0.0889 -0.9935
vn 0.0000 0.3924 -0.9198
vn -0.5364 -0.8427 0.0463
vn -0.4387 -0.8986 0.0000
vn 0.0000 -1.0000 0.0000
vn 0.3571 -0.9340 0.0000
vn -0.9815 -0.1915 0.0000
vn 0.4280 -0.9038 0.0000
vn 0.8124 -0.5818 -0.0406
vn -0.8607 -0.5056 -0.0601
vn -0.8383 -0.5421 -0.0578
vn 0.9552 -0.2772 -0.1037
vn -0.0360 0.9989 0.0298
vn 0.0236 -0.9997 0.0000
vn 0.9861 -0.1554 -0.0590
vn -0.9637 -0.2590 -0.0642
vn 0.9215 0.3688 -0.1213
vn 0.5381 -0.7805 -0.3182
vn 0.0000 0.9996 0.0284
vn -0.0030 1.0000 0.0008
vn 0.0000 -0.9946 0.1036
vn 0.9223 -0.3816 0.0610
vn 0.7546 -0.6260 -0.1969
vn -0.2598 -0.8885 -0.3784
vn 0.0000 0.9946 -0.1040
vn 0.0299 0.9936 0.1089
vn -0.1373 -0.8701 -0.4734
vn -0.9638 -0.2528 -0.0848
vn 0.0608 0.9971 -0.0463
vn 0.0463 0.9989 0.0004
vn 0.2654 -0.9631 -0.0456
vn 0.4690 -0.7953 -0.3841
vn -0.0593 0.9927 0.1051
vn -0.0475 0.9987 -0.0188
vn -0.5364 -0.8427 -0.0463
vn -0.9261 -0.3772 -0.0118
vn -0.7974 -0.6034 -0.0134
vn -0.9962 -0.0668 -0.0564
vn -0.7865 -0.5907 -0.1801
vn -0.8804 -0.4742 0.0000
vn -0.8023 -0.5969 0.0000
vn 0.8080 -0.5888 0.0239
vn 0.9695 -0.2363 0.0647
vn -0.0523 0.9984 -0.0201
vn 0.9962 -0.0771 0.0393
usemtl None
s off
f 97/1/1 95/2/1 4/3/1 14/4/1
f 51/5/2 49/6/2 8/7/2 15/8/2
f 121/9/3 118/10/3 6/11/3 16/12/3
f 43/13/4 42/14/4 2/15/4 13/16/4
f 130/17/5 136/18/5 5/19/5 50/20/5
f 128/21/6 135/22/6 2/23/6 42/24/6
f 132/25/7 119/26/7 12/27/7 58/28/7
f 134/29/8 120/30/8 11/31/8 66/32/8
f 59/33/9 58/34/9 12/35/9 17/36/9
f 67/37/10 65/38/10 10/39/10 18/40/10
f 68/41/11 67/37/11 18/40/11 23/42/11
f 60/43/12 59/33/12 17/36/12 22/44/12
f 44/45/13 43/13/13 13/16/13 24/46/13
f 122/47/14 121/9/14 16/12/14 21/48/14
f 52/49/15 51/5/15 15/8/15 20/50/15
f 98/51/16 97/1/16 14/4/16 19/52/16
f 99/53/17 98/51/17 19/52/17 3/54/17
f 53/55/18 52/49/18 20/50/18 7/56/18
f 136/18/19 122/47/19 21/48/19 5/19/19
f 46/57/20 44/45/20 24/46/20 1/58/20
f 62/59/21 60/43/21 22/44/21 11/60/21
f 69/61/22 68/41/22 23/42/22 9/62/22
f 41/63/23 48/64/23 32/65/23 25/66/23
f 66/67/24 72/68/24 31/69/24 28/70/24
f 72/68/25 71/71/25 30/72/25 31/69/25
f 48/64/26 47/73/26 29/74/26 32/65/26
f 47/73/27 45/75/27 27/76/27 29/74/27
f 127/77/28 123/78/28 28/79/28 46/80/28
f 133/81/7 124/82/7 26/83/7 70/84/7
f 71/71/9 70/85/9 26/86/9 30/72/9
f 50/87/29 56/88/29 40/89/29 34/90/29
f 57/91/30 64/92/30 39/93/30 35/94/30
f 64/92/31 63/95/31 38/96/31 39/93/31
f 56/88/32 55/97/32 37/98/32 40/89/32
f 55/97/33 54/99/33 36/100/33 37/98/33
f 129/101/34 125/102/34 36/103/34 54/104/34
f 131/105/35 126/106/35 34/107/35 62/108/35
f 63/95/36 61/109/36 33/110/36 38/96/36
f 117/111/37 127/77/37 46/80/37 1/112/37
f 14/4/38 4/3/38 45/75/38 47/73/38
f 19/52/39 14/4/39 47/73/39 48/64/39
f 3/54/40 19/52/40 48/64/40 41/63/40
f 28/70/41 31/69/41 44/45/41 46/57/41
f 31/69/42 30/72/42 43/13/42 44/45/42
f 124/82/7 128/21/7 42/24/7 26/83/7
f 30/72/9 26/86/9 42/14/9 43/13/9
f 118/10/43 129/101/43 54/104/43 6/11/43
f 16/12/44 6/11/44 54/99/44 55/97/44
f 21/48/45 16/12/45 55/97/45 56/88/45
f 5/19/46 21/48/46 56/88/46 50/87/46
f 35/94/47 39/93/47 52/49/47 53/55/47
f 39/93/48 38/96/48 51/5/48 52/49/48
f 126/106/49 130/17/49 50/20/49 34/107/49
f 38/96/50 33/110/50 49/6/50 51/5/50
f 18/40/51 10/39/51 61/109/51 63/95/51
f 120/30/52 131/105/52 62/108/52 11/31/52
f 23/42/53 18/40/53 63/95/53 64/92/53
f 9/62/54 23/42/54 64/92/54 57/91/54
f 34/90/55 40/89/55 60/43/55 62/59/55
f 40/89/56 37/98/56 59/33/56 60/43/56
f 37/98/57 36/100/57 58/34/57 59/33/57
f 125/102/7 132/25/7 58/28/7 36/103/7
f 17/36/58 12/35/58 70/85/58 71/71/58
f 119/26/7 133/81/7 70/84/7 12/27/7
f 22/44/59 17/36/59 71/71/59 72/68/59
f 11/60/60 22/44/60 72/68/60 66/67/60
f 25/66/61 32/65/61 68/41/61 69/61/61
f 32/65/62 29/74/62 67/37/62 68/41/62
f 29/74/63 27/76/63 65/38/63 67/37/63
f 123/78/64 134/29/64 66/32/64 28/79/64
f 105/113/65 116/114/65 94/115/65 83/116/65
f 101/117/7 115/118/7 93/119/7 77/120/7
f 107/121/7 114/122/7 92/123/7 85/124/7
f 102/125/66 113/126/66 91/127/66 78/128/66
f 108/129/67 112/130/67 90/131/67 86/132/67
f 100/133/7 111/134/7 89/135/7 76/136/7
f 106/137/7 110/138/7 88/139/7 84/140/7
f 99/141/68 109/142/68 87/143/68 73/144/68
f 113/126/69 108/129/69 86/132/69 91/127/69
f 111/134/7 107/121/7 85/124/7 89/135/7
f 115/118/7 106/137/7 84/140/7 93/119/7
f 109/142/66 105/113/66 83/116/66 87/143/66
f 96/145/70 104/146/70 82/147/70 75/148/70
f 117/149/71 138/150/71 81/151/71 73/152/71
f 138/150/72 137/153/72 80/154/72 81/151/72
f 104/146/73 103/155/73 79/156/73 82/147/73
f 116/114/66 102/125/66 78/128/66 94/115/66
f 114/122/7 101/117/7 77/120/7 92/123/7
f 110/138/74 95/157/74 74/158/74 88/139/74
f 112/130/75 96/145/75 75/148/75 90/131/75
f 103/155/76 100/133/76 76/136/76 79/156/76
f 137/153/77 135/159/77 74/160/77 80/154/77
f 15/8/78 8/7/78 100/133/78 103/155/78
f 53/161/79 7/56/79 96/145/79 112/130/79
f 45/162/80 4/163/80 95/157/80 110/138/80
f 61/164/81 10/165/81 101/117/81 114/122/81
f 69/166/82 9/167/82 102/125/82 116/114/82
f 20/50/83 15/8/83 103/155/83 104/146/83
f 7/56/84 20/50/84 104/146/84 96/145/84
f 41/168/85 25/169/85 105/113/85 109/142/85
f 65/170/86 27/171/86 106/137/86 115/118/86
f 49/172/87 33/173/87 107/121/87 111/134/87
f 57/174/88 35/175/88 108/129/88 113/126/88
f 3/176/89 41/168/89 109/142/89 99/141/89
f 27/171/90 45/162/90 110/138/90 106/137/90
f 8/7/91 49/172/91 111/134/91 100/133/91
f 35/175/92 53/161/92 112/130/92 108/129/92
f 9/167/93 57/174/93 113/126/93 102/125/93
f 33/173/94 61/164/94 114/122/94 107/121/94
f 10/165/95 65/170/95 115/118/95 101/117/95
f 25/169/96 69/166/96 116/114/96 105/113/96
f 73/152/97 81/151/97 98/51/97 99/53/97
f 81/151/98 80/154/98 97/1/98 98/51/98
f 80/154/99 74/160/99 95/2/99 97/1/99
f 13/177/100 2/178/100 135/159/100 137/153/100
f 24/179/101 13/177/101 137/153/101 138/150/101
f 1/180/102 24/179/102 138/150/102 117/149/102
f 83/116/65 94/115/65 134/29/65 123/78/65
f 77/120/7 93/119/7 133/81/7 119/26/7
f 85/124/7 92/123/7 132/25/7 125/102/7
f 78/128/66 91/127/66 131/105/66 120/30/66
f 86/132/67 90/131/67 130/17/67 126/106/67
f 76/136/7 89/135/7 129/101/7 118/10/7
f 84/140/7 88/139/7 128/21/7 124/82/7
f 73/144/68 87/143/68 127/77/68 117/111/68
f 91/127/69 86/132/69 126/106/69 131/105/69
f 89/135/7 85/124/7 125/102/7 129/101/7
f 93/119/7 84/140/7 124/82/7 133/81/7
f 87/143/66 83/116/66 123/78/66 127/77/66
f 75/148/103 82/147/103 122/47/103 136/18/103
f 82/147/104 79/156/104 121/9/104 122/47/104
f 94/115/66 78/128/66 120/30/66 134/29/66
f 92/123/7 77/120/7 119/26/7 132/25/7
f 88/139/105 74/158/105 135/22/105 128/21/105
f 90/131/75 75/148/75 136/18/75 130/17/75
f 79/156/106 76/136/106 118/10/106 121/9/106
