# Blender v2.90.1 OBJ File: 'untitled.blend'
# www.blender.org
mtllib crystal4.mtl
o Crystal_Crystal.001
v -0.326127 0.076978 0.064170
v -1.313829 1.953786 -0.418998
v -0.529813 -0.163411 -0.330513
v -1.584430 1.643914 -1.030379
v -0.043438 0.163411 -0.134363
v -0.922630 2.174250 -0.676823
v -0.247123 -0.076978 -0.529046
v -1.217649 1.838616 -1.270874
v -0.520046 -0.071369 -0.068507
v -1.730714 2.079401 -0.772594
v -0.053205 0.071369 -0.396369
v -1.138035 2.629684 -1.125567
v -1.117811 1.550931 -0.116366
v -1.496139 1.092497 -0.912817
v -0.944246 1.238721 -1.284564
v -0.565091 1.719926 -0.504541
v -0.762708 2.005061 -1.104766
v -1.650077 1.606689 -0.504165
vt 0.523117 0.719732
vt 0.383154 0.891226
vt 0.334446 0.712692
vt 0.373628 0.560682
vt 0.188698 0.720583
vt 0.206550 0.541237
vt 0.511782 0.254610
vt 0.569371 0.001327
vt 0.670612 0.205940
vt 0.685969 0.379435
vt 0.830255 0.212000
vt 0.864867 0.357911
vt 0.881851 0.029169
vt 0.057127 0.968141
vt 0.012285 0.695130
vt 0.998673 0.200438
vt 0.910090 0.831039
vt 0.998673 0.829089
vt 0.274365 0.078807
vt 0.188026 0.059522
vt 0.799642 0.847706
vt 0.717537 0.874855
vt 0.388824 0.084800
vt 0.477638 0.080118
vn -0.9681 -0.2108 -0.1357
vn -0.4802 -0.2273 -0.8472
vn 0.8178 0.5699 0.0803
vn 0.2722 0.5948 0.7564
vn -0.1643 0.7329 0.6602
vn -0.6278 0.2120 -0.7489
vn 0.2908 0.1486 -0.9452
vn -0.5400 0.3334 0.7728
vn -0.5575 -0.1815 0.8101
vn 0.6843 -0.0320 -0.7285
vn 0.4647 0.3492 0.8137
vn 0.9451 0.2827 -0.1640
vn -0.3333 -0.5957 -0.7308
vn -0.8252 -0.4957 0.2707
usemtl Crystal
s 1
f 18/1/1 10/2/1 4/3/1 14/4/1
f 14/4/2 4/3/2 8/5/2 15/6/2
f 17/7/3 12/8/3 6/9/3 16/10/3
f 16/10/4 6/9/4 2/11/4 13/12/4
f 12/8/5 10/13/5 2/11/5 6/9/5
f 8/5/6 4/3/6 10/2/6 12/14/6
f 15/6/7 8/5/7 12/14/7 17/15/7
f 13/12/8 2/11/8 10/13/8 18/16/8
f 1/17/9 13/12/9 18/16/9 9/18/9
f 7/19/10 15/6/10 17/15/10 11/20/10
f 5/21/11 16/10/11 13/12/11 1/17/11
f 11/22/12 17/7/12 16/10/12 5/21/12
f 3/23/13 14/4/13 15/6/13 7/19/13
f 9/24/14 18/1/14 14/4/14 3/23/14
o Crystal.001_Crystal.002
v 0.159139 -0.048973 -0.058250
v 0.809303 1.450299 -1.225381
v -0.223892 0.183630 0.070471
v 0.236572 1.792183 -1.091450
v -0.006624 -0.183630 -0.308180
v 0.639127 1.286838 -1.641126
v -0.389656 0.048973 -0.179459
v 0.072519 1.635076 -1.471810
v 0.021615 0.111188 0.087516
v 0.662686 1.944999 -1.269204
v -0.252131 -0.111188 -0.325225
v 0.532923 1.745946 -2.048450
v 0.828399 1.072451 -0.899799
v 0.061871 1.523047 -0.673563
v -0.259595 1.248249 -1.139144
v 0.504296 0.809169 -1.388466
v 0.198674 1.257881 -1.727441
v 0.643398 1.652190 -0.855314
vt 0.523117 0.719732
vt 0.383154 0.891226
vt 0.334446 0.712692
vt 0.373628 0.560682
vt 0.188698 0.720583
vt 0.206550 0.541237
vt 0.511782 0.254610
vt 0.569371 0.001327
vt 0.670612 0.205940
vt 0.685969 0.379435
vt 0.830255 0.212000
vt 0.864867 0.357911
vt 0.881851 0.029169
vt 0.057127 0.968141
vt 0.012285 0.695130
vt 0.998673 0.200438
vt 0.910090 0.831039
vt 0.998673 0.829089
vt 0.274365 0.078807
vt 0.188026 0.059522
vt 0.799642 0.847706
vt 0.717537 0.874855
vt 0.388824 0.084800
vt 0.477638 0.080118
vn -0.0352 0.8319 0.5538
vn -0.7399 0.6675 0.0838
vn 0.1940 -0.5690 -0.7992
vn 0.8838 -0.3382 -0.3234
vn 0.9533 0.1220 -0.2763
vn -0.4115 0.8953 -0.1707
vn -0.7841 0.1465 -0.6031
vn 0.9231 0.2847 0.2585
vn 0.7038 0.1271 0.6989
vn -0.7641 -0.3345 -0.5516
vn 0.7746 -0.6037 -0.1885
vn -0.1793 -0.6771 -0.7137
vn -0.8509 0.3816 0.3610
vn 0.1419 0.4666 0.8730
usemtl Crystal
s 1
f 36/25/15 28/26/15 22/27/15 32/28/15
f 32/28/16 22/27/16 26/29/16 33/30/16
f 35/31/17 30/32/17 24/33/17 34/34/17
f 34/34/18 24/33/18 20/35/18 31/36/18
f 30/32/19 28/37/19 20/35/19 24/33/19
f 26/29/20 22/27/20 28/26/20 30/38/20
f 33/30/21 26/29/21 30/38/21 35/39/21
f 31/36/22 20/35/22 28/37/22 36/40/22
f 19/41/23 31/36/23 36/40/23 27/42/23
f 25/43/24 33/30/24 35/39/24 29/44/24
f 23/45/25 34/34/25 31/36/25 19/41/25
f 29/46/26 35/31/26 34/34/26 23/45/26
f 21/47/27 32/28/27 33/30/27 25/43/27
f 27/48/28 36/25/28 32/28/28 21/47/28
o Crystal.002_Crystal.003
v 0.147327 0.006550 -0.187221
v 1.156913 1.422894 -0.283721
v 0.345205 -0.139469 0.133879
v 1.433810 1.250471 0.208097
v -0.035957 0.139469 -0.013827
v 0.909555 1.682237 -0.075112
v 0.161921 -0.006550 0.307272
v 1.200652 1.484123 0.404915
v 0.305964 -0.109753 -0.083148
v 1.547270 1.528550 -0.088181
v 0.003284 0.109753 0.203199
v 1.185773 2.082934 0.159607
v 0.922580 1.084504 -0.418090
v 1.298670 0.814385 0.229237
v 0.936472 1.053843 0.559653
v 0.564221 1.344390 -0.079068
v 0.834548 1.639943 0.305422
v 1.402165 1.127923 -0.198389
vt 0.523117 0.719732
vt 0.383154 0.891226
vt 0.334446 0.712692
vt 0.373628 0.560682
vt 0.188698 0.720583
vt 0.206550 0.541237
vt 0.511782 0.254610
vt 0.569371 0.001327
vt 0.670612 0.205940
vt 0.685969 0.379435
vt 0.830255 0.212000
vt 0.864867 0.357911
vt 0.881851 0.029169
vt 0.057127 0.968141
vt 0.012285 0.695130
vt 0.998673 0.200438
vt 0.910090 0.831039
vt 0.998673 0.829089
vt 0.274365 0.078807
vt 0.188026 0.059522
vt 0.799642 0.847706
vt 0.717537 0.874855
vt 0.388824 0.084800
vt 0.477638 0.080118
vn 0.9473 -0.3197 0.0226
vn 0.6039 -0.1184 0.7882
vn -0.7509 0.6562 -0.0751
vn -0.3435 0.4618 -0.8178
vn 0.1157 0.5503 -0.8269
vn 0.7775 0.2649 0.5704
vn -0.0888 0.3795 0.9209
vn 0.4173 0.0852 -0.9048
vn 0.3710 -0.4233 -0.8265
vn -0.5335 0.2189 0.8170
vn -0.5691 0.2409 -0.7862
vn -0.8603 0.4469 0.2452
vn 0.3982 -0.4769 0.7836
vn 0.6998 -0.6571 -0.2801
usemtl Crystal
s 1
f 54/49/29 46/50/29 40/51/29 50/52/29
f 50/52/30 40/51/30 44/53/30 51/54/30
f 53/55/31 48/56/31 42/57/31 52/58/31
f 52/58/32 42/57/32 38/59/32 49/60/32
f 48/56/33 46/61/33 38/59/33 42/57/33
f 44/53/34 40/51/34 46/50/34 48/62/34
f 51/54/35 44/53/35 48/62/35 53/63/35
f 49/60/36 38/59/36 46/61/36 54/64/36
f 37/65/37 49/60/37 54/64/37 45/66/37
f 43/67/38 51/54/38 53/63/38 47/68/38
f 41/69/39 52/58/39 49/60/39 37/65/39
f 47/70/40 53/55/40 52/58/40 41/69/40
f 39/71/41 50/52/41 51/54/41 43/67/41
f 45/72/42 54/49/42 50/52/42 39/71/42
o Crystal.003_Crystal.004
v -0.023168 -0.118000 0.173452
v -0.013357 0.984194 1.179842
v -0.076495 0.098997 -0.091419
v -0.055897 1.319719 0.803950
v 0.218184 -0.098997 0.140429
v 0.338694 1.027849 1.199691
v 0.164857 0.118000 -0.124442
v 0.271055 1.356912 0.815866
v -0.128443 -0.015691 0.051773
v -0.117183 1.354185 1.158513
v 0.270132 0.015691 -0.002763
v 0.454497 1.456839 1.329615
v -0.084340 0.651213 1.032488
v -0.167105 1.083788 0.511868
v 0.294162 1.106915 0.439443
v 0.387555 0.688369 0.967921
v 0.519959 1.144668 0.944263
v -0.260012 1.063812 0.964906
vt 0.523117 0.719732
vt 0.383154 0.891226
vt 0.334446 0.712692
vt 0.373628 0.560682
vt 0.188698 0.720583
vt 0.206550 0.541237
vt 0.511782 0.254610
vt 0.569371 0.001327
vt 0.670612 0.205940
vt 0.685969 0.379435
vt 0.830255 0.212000
vt 0.864867 0.357911
vt 0.881851 0.029169
vt 0.057127 0.968141
vt 0.012285 0.695130
vt 0.998673 0.200438
vt 0.910090 0.831039
vt 0.998673 0.829089
vt 0.274365 0.078807
vt 0.188026 0.059522
vt 0.799642 0.847706
vt 0.717537 0.874855
vt 0.388824 0.084800
vt 0.477638 0.080118
vn -0.8192 0.5489 -0.1663
vn -0.1062 0.8109 -0.5754
vn 0.8380 -0.2904 0.4619
vn 0.0952 -0.4913 0.8658
vn -0.1810 -0.1298 0.9749
vn -0.1256 0.9829 -0.1345
vn 0.7059 0.6067 -0.3656
vn -0.6774 -0.1604 0.7179
vn -0.8805 -0.3727 0.2930
vn 0.8792 0.1622 -0.4479
vn 0.1487 -0.7314 0.6655
vn 0.9552 -0.2845 0.0816
vn -0.1576 0.5049 -0.8486
vn -0.9730 0.0591 -0.2230
usemtl Crystal
s 1
f 72/73/43 64/74/43 58/75/43 68/76/43
f 68/76/44 58/75/44 62/77/44 69/78/44
f 71/79/45 66/80/45 60/81/45 70/82/45
f 70/82/46 60/81/46 56/83/46 67/84/46
f 66/80/47 64/85/47 56/83/47 60/81/47
f 62/77/48 58/75/48 64/74/48 66/86/48
f 69/78/49 62/77/49 66/86/49 71/87/49
f 67/84/50 56/83/50 64/85/50 72/88/50
f 55/89/51 67/84/51 72/88/51 63/90/51
f 61/91/52 69/78/52 71/87/52 65/92/52
f 59/93/53 70/82/53 67/84/53 55/89/53
f 65/94/54 71/79/54 70/82/54 59/93/54
f 57/95/55 68/76/55 69/78/55 61/91/55
f 63/96/56 72/73/56 68/76/56 57/95/56
o Crystal.004_Crystal.005
v -0.043946 0.087061 0.192424
v -1.041351 1.261219 1.005532
v -0.341280 -0.186636 0.176162
v -1.500944 0.894220 0.956825
v -0.121621 0.186636 -0.063266
v -1.156106 1.478200 0.671298
v -0.418955 -0.087061 -0.079528
v -1.605329 1.088631 0.642182
v -0.167314 -0.082220 0.267575
v -1.441623 1.228841 1.206807
v -0.295588 0.082220 -0.154678
v -1.630073 1.727548 0.742913
v -0.688497 1.030246 0.907449
v -1.284147 0.505005 0.854882
v -1.420021 0.684124 0.357733
v -0.840368 1.224936 0.407519
v -1.385517 1.329177 0.393119
v -1.133471 0.916694 1.170621
vt 0.523117 0.719732
vt 0.383154 0.891226
vt 0.334446 0.712692
vt 0.373628 0.560682
vt 0.188698 0.720583
vt 0.206550 0.541237
vt 0.511782 0.254610
vt 0.569371 0.001327
vt 0.670612 0.205940
vt 0.685969 0.379435
vt 0.830255 0.212000
vt 0.864867 0.357911
vt 0.881851 0.029169
vt 0.057127 0.968141
vt 0.012285 0.695130
vt 0.998673 0.200438
vt 0.910090 0.831039
vt 0.998673 0.829089
vt 0.274365 0.078807
vt 0.188026 0.059522
vt 0.799642 0.847706
vt 0.717537 0.874855
vt 0.388824 0.084800
vt 0.477638 0.080118
vn -0.4225 -0.4690 0.7756
vn -0.8821 -0.4689 0.0453
vn 0.2317 0.7650 -0.6009
vn 0.6363 0.7529 0.1682
vn 0.3582 0.7586 0.5442
vn -0.9530 -0.0721 0.2942
vn -0.7812 0.0717 -0.6202
vn 0.4195 0.2986 0.8572
vn 0.5707 -0.1918 0.7984
vn -0.3999 0.0328 -0.9160
vn 0.8169 0.5763 -0.0237
vn 0.1271 0.4860 -0.8647
vn -0.6352 -0.7654 -0.1032
vn 0.0637 -0.6425 0.7636
usemtl Crystal
s 1
f 90/97/57 82/98/57 76/99/57 86/100/57
f 86/100/58 76/99/58 80/101/58 87/102/58
f 89/103/59 84/104/59 78/105/59 88/106/59
f 88/106/60 78/105/60 74/107/60 85/108/60
f 84/104/61 82/109/61 74/107/61 78/105/61
f 80/101/62 76/99/62 82/98/62 84/110/62
f 87/102/63 80/101/63 84/110/63 89/111/63
f 85/108/64 74/107/64 82/109/64 90/112/64
f 73/113/65 85/108/65 90/112/65 81/114/65
f 79/115/66 87/102/66 89/111/66 83/116/66
f 77/117/67 88/106/67 85/108/67 73/113/67
f 83/118/68 89/103/68 88/106/68 77/117/68
f 75/119/69 86/100/69 87/102/69 79/115/69
f 81/120/70 90/97/70 86/100/70 75/119/70
