# Blender v2.90.1 OBJ File: 'crystal2.blend'
# www.blender.org
mtllib crystal2.mtl
o shard_of_ore_4_Cube.058
v 12.160420 0.196124 3.084693
v 12.292960 0.160202 3.116438
v 12.175380 0.104306 3.034475
v 12.125895 0.162484 3.046600
v 12.015644 0.112026 3.065661
v 12.017015 0.121393 3.065527
v 12.021482 0.120617 3.057231
v 12.020110 0.111250 3.057365
v 12.114439 0.039207 3.048156
v 12.161195 0.050202 3.046606
v 12.165409 0.011992 3.055016
v 12.120987 0.016863 3.111162
v 12.060980 0.162025 3.141369
v 12.087868 0.118817 3.196871
v 12.160690 0.184456 3.226099
v 12.116482 0.192512 3.163491
v 12.054626 0.049475 3.159714
v 12.116576 0.017630 3.119356
v 12.229843 0.015711 3.272290
v 12.081241 0.073567 3.197517
v 12.534001 0.102012 3.286029
v 12.498744 0.006912 3.274582
v 12.480625 0.013066 3.376148
v 12.476243 0.112305 3.365907
v 12.547382 0.088376 3.329840
v 12.530943 0.044035 3.324502
v 12.522495 0.046904 3.371858
v 12.520452 0.093175 3.367084
vt 0.284904 0.089976
vt 0.279055 0.178667
vt 0.214307 0.086605
vt 0.264146 0.058035
vt 0.217753 0.450572
vt 0.210108 0.450572
vt 0.210108 0.442943
vt 0.217753 0.442943
vt 0.124815 0.064655
vt 0.140763 0.091121
vt 0.143761 0.099120
vt 0.087585 0.090717
vt 0.511757 0.393671
vt 0.481359 0.355860
vt 0.543866 0.312134
vt 0.543883 0.357774
vt 0.023415 0.064809
vt 0.080128 0.090717
vt 0.015085 0.208029
vt 0.002125 0.091216
vt 0.147940 0.095094
vt 0.267419 0.381973
vt 0.163196 0.365131
vt 0.126870 0.368931
vt 0.024108 0.390878
vt 0.178233 0.086605
vt 0.164258 0.061678
vt 0.324414 0.088715
vt 0.296214 0.061569
vt 0.387648 0.049171
vt 0.386318 0.085004
vt 0.421521 0.377282
vt 0.444490 0.353648
vt 0.465498 0.435929
vt 0.473129 0.436387
vt 0.345287 0.006449
vt 0.337655 0.006906
vt 0.211275 0.006403
vt 0.218920 0.006403
vt 0.062787 0.006459
vt 0.070336 0.006459
vt 0.288866 0.183073
vt 0.416016 0.130700
vt 0.416016 0.370122
vt 0.312729 0.385333
vt 0.419784 0.234472
vt 0.441212 0.052401
vt 0.543879 0.072712
vt 0.267419 0.381973
vt 0.163196 0.365131
vt 0.126870 0.368931
vt 0.024108 0.390878
vt 0.441212 0.052401
vt 0.543879 0.072712
vt 0.416016 0.370122
vt 0.312729 0.385333
vn 0.3412 0.4932 -0.8002
vn -0.8693 0.1205 -0.4793
vn -0.3196 -0.7459 -0.5843
vn -0.6206 0.5105 0.5952
vn -0.4138 -0.8184 0.3986
vn 0.5480 -0.1187 -0.8280
vn -0.0659 -0.9971 0.0374
vn -0.0330 -0.9988 0.0357
vn 0.6010 -0.2349 -0.7640
vn -0.5575 -0.7990 -0.2254
vn -0.1655 -0.0521 -0.9848
vn -0.4411 0.8600 -0.2565
vn -0.8481 0.1315 0.5133
vn -0.8853 0.1240 0.4482
vn -0.3801 0.8881 -0.2586
vn -0.0998 -0.0030 -0.9950
vn -0.6026 -0.7567 -0.2535
vn 0.2002 0.9765 0.0802
vn 0.2105 0.9770 0.0329
vn -0.4261 0.0729 0.9017
vn -0.3838 0.0882 0.9192
vn 0.8880 -0.2859 -0.3602
vn 0.6304 -0.7599 0.1585
vn 0.0183 0.1034 0.9945
vn 0.3881 0.9070 0.1638
vn 0.9078 -0.1467 0.3929
usemtl Material.004
s 1
f 1/1/1 2/2/1 3/3/1 4/4/1
f 5/5/2 6/6/2 7/7/2 8/8/2
f 9/9/3 10/10/3 11/11/3 12/12/3
f 13/13/4 14/14/4 15/15/4 16/16/4
f 17/17/5 18/18/5 19/19/5 20/20/5
f 11/21/6 2/2/6 21/22/6 22/23/6
f 11/11/7 19/19/7 18/18/7 12/12/7
f 19/19/8 11/11/8 22/24/8 23/25/8
f 2/2/9 11/21/9 10/26/9 3/3/9
f 18/18/10 17/17/10 9/9/10 12/12/10
f 10/26/11 9/27/11 4/4/11 3/3/11
f 1/28/12 4/29/12 13/30/12 16/31/12
f 14/14/13 13/13/13 17/32/13 20/33/13
f 5/34/14 17/32/14 13/13/14 6/35/14
f 6/36/15 13/30/15 4/29/15 7/37/15
f 8/38/16 7/39/16 4/4/16 9/27/16
f 5/40/17 8/41/17 9/9/17 17/17/17
f 2/42/18 1/28/18 16/31/18 15/43/18
f 24/44/19 21/45/19 2/42/19 15/43/19
f 15/15/20 14/14/20 20/33/20 19/46/20
f 23/47/21 24/48/21 15/15/21 19/46/21
f 22/23/22 21/22/22 25/49/22 26/50/22
f 23/25/23 22/24/23 26/51/23 27/52/23
f 24/48/24 23/47/24 27/53/24 28/54/24
f 21/45/25 24/44/25 28/55/25 25/56/25
f 25/49/26 28/54/26 27/52/26 26/50/26
