# Blender v2.91.2 OBJ File: ''
# www.blender.org
mtllib лестница.mtl
o лестница
v 0.429894 -0.587803 0.240249
v -0.256791 -0.431432 0.449527
v -0.278273 -0.555653 0.471468
v 0.359633 -0.533146 0.134705
v 0.367800 -0.651717 0.148144
v 0.479219 -0.931619 0.231989
v 0.355718 0.683566 -0.713099
v 0.584901 -0.878150 0.319899
v -0.377498 -0.473132 0.392526
v -0.288033 -0.181969 0.278973
v -0.250383 -0.712147 0.682668
v -0.412831 -0.189389 0.231715
v 0.398012 0.594563 -0.461312
v 0.395879 -0.227668 0.024384
v -0.292407 -0.083193 0.256449
v -0.360464 0.628855 -0.145060
v 0.326400 0.122211 -0.342362
v 0.333799 -0.307171 -0.022986
v 0.323163 -0.198436 -0.088784
v -0.328938 0.277638 0.043731
v -0.346937 -0.093913 0.179385
v 0.435611 0.732145 -0.648472
v 0.328682 0.144936 -0.208151
v -0.419756 0.208808 -0.015569
v -0.401357 -0.784470 0.624322
v -0.373347 -0.715206 0.742221
v -0.566449 0.848262 -0.311510
v 0.291245 0.240078 -0.286489
v -0.414557 0.318345 -0.054783
v -0.366165 0.518587 -0.153871
v -0.484923 0.906181 -0.193985
v -0.470510 0.535691 -0.210160
v 0.301375 0.484253 -0.393340
v 0.284947 0.404798 -0.465996
v 0.282040 0.551650 -0.462489
v -0.416032 0.627763 -0.242959
v 0.276304 0.479248 -0.532128
v 0.418043 -0.844775 0.377195
v 0.274424 0.759296 -0.583558
v -0.385280 0.858593 -0.308848
vn 0.0526 0.3978 0.9159
vn 0.7971 0.5784 0.1733
vn 0.5124 -0.7538 -0.4114
vn -0.9080 0.4148 0.0591
vn -0.7714 -0.5354 -0.3437
vn -0.0899 -0.9248 -0.3697
vn -0.0977 0.0942 -0.9907
vn 0.8257 -0.4000 0.3977
vn -0.2401 -0.4605 -0.8545
vn 0.8260 -0.5477 0.1335
vn 0.8449 -0.3657 0.3902
vn -0.3535 -0.5557 -0.7525
vn 0.4125 0.5437 0.7308
vn -0.2048 0.4551 0.8666
vn 0.8736 0.4498 0.1857
vn 0.7704 0.4661 0.4348
vn -0.6724 -0.4498 -0.5878
vn -0.6282 -0.7299 -0.2694
vn -0.9558 0.0676 -0.2859
vn 0.9955 -0.0790 -0.0513
vn 0.1979 -0.1617 -0.9668
vn 0.7366 0.6130 -0.2855
vn -0.4379 0.1635 0.8840
vn -0.7585 -0.5169 -0.3968
vn -0.4457 -0.8845 -0.1380
vn -0.3006 -0.2112 0.9301
vn -0.7411 0.3422 -0.5775
vn -0.6892 0.6757 0.2615
vn -0.0302 -0.3304 -0.9433
vn 0.6816 -0.7230 -0.1127
vn -0.1058 0.8809 0.4612
vn -0.6006 -0.5362 -0.5931
vn 0.0201 0.2844 0.9585
vn -0.7439 -0.5712 -0.3468
vn -0.4239 0.8169 0.3911
vn 0.1333 -0.0022 -0.9911
vn -0.4220 -0.3846 -0.8210
vn -0.4906 -0.2402 0.8376
vn -0.6030 0.7915 0.0995
vn 0.6799 0.4606 -0.5706
usemtl Default_OBJ.001
s 1
f 1//1 2//2 3//3
f 4//4 2//2 1//1
f 5//5 1//1 3//3
f 6//6 7//7 8//8
f 9//9 5//5 3//3
f 10//10 11//11 2//2
f 12//12 10//10 9//9
f 9//9 10//10 2//2
f 2//2 4//4 9//9
f 5//5 9//9 4//4
f 1//1 13//13 14//14
f 4//4 1//1 14//14
f 11//11 15//15 16//16
f 11//11 10//10 15//15
f 4//4 17//17 5//5
f 10//10 14//14 15//15
f 4//4 14//14 18//18
f 14//14 10//10 18//18
f 19//19 18//18 12//12
f 18//18 10//10 12//12
f 20//20 15//15 21//21
f 19//19 21//21 15//15
f 19//19 15//15 14//14
f 18//18 17//17 4//4
f 15//15 20//20 16//16
f 18//18 19//19 17//17
f 17//17 7//7 6//6
f 13//13 8//8 22//22
f 14//14 13//13 23//23
f 14//14 23//23 19//19
f 24//24 20//20 21//21
f 25//25 26//26 27//27
f 23//23 20//20 24//24
f 23//23 17//17 19//19
f 28//28 29//29 20//20
f 28//28 20//20 23//23
f 27//27 29//29 12//12
f 27//27 12//12 25//25
f 29//29 24//24 12//12
f 30//30 16//16 20//20
f 27//27 26//26 31//31
f 30//30 20//20 29//29
f 17//17 23//23 24//24
f 23//23 13//13 28//28
f 29//29 17//17 24//24
f 29//29 28//28 17//17
f 32//32 30//30 29//29
f 33//33 30//30 34//34
f 32//32 34//34 30//30
f 28//28 34//34 17//17
f 33//33 16//16 30//30
f 33//33 34//34 28//28
f 35//35 36//36 16//16
f 35//35 16//16 33//33
f 34//34 7//7 17//17
f 36//36 35//35 37//37
f 8//8 13//13 1//1
f 38//38 8//8 1//1
f 3//3 11//11 25//25
f 11//11 3//3 2//2
f 13//13 39//39 35//35
f 39//39 37//37 35//35
f 9//9 3//3 25//25
f 12//12 9//9 25//25
f 26//26 11//11 31//31
f 11//11 26//26 25//25
f 5//5 17//17 6//6
f 1//1 5//5 38//38
f 38//38 5//5 6//6
f 8//8 38//38 6//6
f 40//40 16//16 36//36
f 16//16 31//31 11//11
f 27//27 32//32 29//29
f 27//27 40//40 36//36
f 31//31 16//16 40//40
f 40//40 27//27 31//31
f 22//22 8//8 7//7
f 39//39 7//7 37//37
f 22//22 39//39 13//13
f 7//7 39//39 22//22
f 13//13 33//33 28//28
f 33//33 13//13 35//35
f 21//21 12//12 24//24
f 21//21 19//19 12//12
f 37//37 34//34 32//32
f 37//37 7//7 34//34
f 27//27 36//36 32//32
f 37//37 32//32 36//36
