# Wavefront Obj file
# 
# verts: 111 uv-s: 167
mtllib carrot.mtl

g Cone
#pivot 0.000000 0.000000 0.000000

v 0.002447 -0.037515 0.432280
v 0.007540 -0.041859 0.429930
v 0.009433 -0.041924 0.424765
v 0.007028 -0.042111 0.419822
v 0.001722 -0.037872 0.417984
v -0.003361 -0.037968 0.420345
v 0.004610 -0.041167 0.427576
v -0.005254 -0.037903 0.425509
v -0.002848 -0.037716 0.430453
v 0.001792 0.074331 0.461423
v 0.026676 0.074807 0.447905
v 0.035948 0.074502 0.418315
v 0.024177 0.073596 0.389988
v -0.001742 0.072618 0.379517
v -0.026625 0.072142 0.393035
v -0.035897 0.072447 0.422625
v -0.024126 0.073353 0.450952
v -0.000297 0.109549 0.453204
v 0.024299 0.110014 0.441782
v 0.033459 0.109702 0.416791
v 0.021818 0.108794 0.392870
v -0.003806 0.107824 0.384032
v -0.028401 0.107359 0.395453
v -0.037561 0.107672 0.420444
v -0.025920 0.108579 0.444365
v -0.012283 -0.022529 0.412134
v 0.000768 -0.023134 0.406095
v 0.020533 -0.019696 0.423206
v 0.015669 -0.017666 0.436332
v 0.014360 -0.021961 0.410681
v 0.002618 -0.017060 0.442371
v -0.010975 -0.018233 0.437785
v -0.017147 -0.020498 0.425261
v -0.019718 0.028910 0.404506
v 0.028854 0.028246 0.421322
v 0.002363 0.023916 0.449598
v -0.000412 0.030590 0.395679
v 0.021669 0.025596 0.440770
v 0.019707 0.030315 0.402644
v -0.017757 0.024191 0.442632
v -0.026903 0.026260 0.423955
v -0.005670 0.130860 0.440285
v 0.014241 0.138614 0.432979
v 0.015408 0.138444 0.410823
v -0.012942 0.137241 0.396173
v -0.011896 0.131011 0.410308
v 0.014798 0.137831 0.401793
v -0.025183 0.137151 0.408117
v -0.017790 0.137669 0.445398
v -0.000502 0.127370 0.418234
v -0.014289 0.128457 0.407889
v -0.013981 0.124229 0.408155
v 0.009437 0.129648 0.428747
v 0.009264 0.125396 0.428589
v -0.003133 0.124433 0.403118
v -0.003215 0.128665 0.402747
v -0.001585 0.125192 0.433627
v -0.001635 0.129439 0.433889
v -0.012887 0.124765 0.429728
v -0.013170 0.129004 0.429911
v 0.008168 0.124860 0.407015
v 0.008321 0.129101 0.406728
v 0.013304 0.125259 0.417566
v 0.013561 0.129507 0.417497
v -0.018021 0.124366 0.419177
v -0.018413 0.128597 0.419142
v -0.014917 0.121771 0.407329
v -0.016517 0.119229 0.405919
v -0.003228 0.119480 0.399748
v -0.003161 0.121994 0.401870
v 0.010271 0.123043 0.429473
v 0.011959 0.120662 0.430953
v -0.001332 0.120411 0.437125
v -0.001484 0.122821 0.434932
v -0.015177 0.119887 0.432348
v -0.013731 0.122356 0.430708
v 0.010618 0.120003 0.404523
v 0.009086 0.122459 0.406095
v 0.016909 0.120493 0.417449
v 0.014650 0.122894 0.417528
v -0.021467 0.119397 0.419423
v -0.019295 0.121921 0.419275
v -0.057025 0.186574 0.424246
v -0.049584 0.177693 0.442123
v -0.044238 0.173116 0.431367
v 0.001749 0.164426 0.441241
v 0.017431 0.164291 0.433960
v 0.023249 0.173352 0.418004
v 0.011378 0.167820 0.430100
v 0.006699 0.163564 0.388656
v -0.002490 0.163216 0.385486
v 0.001143 0.152317 0.395939
v -0.009467 0.136547 0.419772
v -0.024599 0.137055 0.408356
v -0.024969 0.137142 0.407945
v -0.028720 0.154528 0.421864
v -0.033418 0.157315 0.450185
v -0.040807 0.156805 0.409700
v 0.009572 0.130749 0.411841
v 0.011355 0.194935 0.428608
v 0.018109 0.151447 0.433467
v -0.001972 0.152478 0.440751
v 0.007619 0.147572 0.430605
v 0.021665 0.155883 0.417525
v -0.003821 0.141669 0.440518
v 0.006719 0.137453 0.427936
v 0.020873 0.147149 0.417286
v 0.015038 0.145033 0.433224
v 0.013879 0.150689 0.395220
v 0.000321 0.139843 0.407086
v -0.010846 0.150237 0.390833
# 111 positions

vt 0.033011 0.489695
vt 0.038021 0.436815
vt 0.052781 0.476994
vt 0.063074 0.458394
vt 0.059034 0.434363
vt 0.057720 0.416231
vt 0.004183 0.490257
vt 0.048840 0.401402
vt 0.000183 0.385407
vt 0.029977 0.384463
vt 0.232552 0.191622
vt 0.169212 0.099551
vt 0.395548 0.000183
vt 0.407375 0.151926
vt 0.410634 0.249905
vt 0.517208 0.265671
vt 0.508416 0.352596
vt 0.410358 0.347596
vt 0.266518 0.433966
vt 0.269058 0.360390
vt 0.407980 0.438647
vt 0.261689 0.281479
vt 0.537222 0.160529
vt 0.243751 0.583799
vt 0.256746 0.506863
vt 0.406436 0.515625
vt 0.406129 0.600348
vt 0.221695 0.672388
vt 0.405577 0.718622
vt 0.185261 0.773521
vt 0.398931 0.875056
vt 0.637922 0.197321
vt 0.610339 0.280712
vt 0.595406 0.026125
vt 0.501967 0.431463
vt 0.515254 0.603773
vt 0.539150 0.702743
vt 0.503242 0.513765
vt 0.589017 0.841920
vt 0.062593 0.315826
vt 0.100700 0.351892
vt 0.072926 0.563718
vt 0.003282 0.596669
vt 0.113015 0.524064
vt 0.136938 0.438550
vt 0.132856 0.481445
vt 0.125791 0.393666
vt 0.005164 0.283105
vt 0.745110 0.638836
vt 0.688140 0.696955
vt 0.701565 0.662505
vt 0.588224 0.507394
vt 0.607423 0.585880
vt 0.591594 0.360035
vt 0.638160 0.667397
vt 0.576643 0.433251
vt 0.687775 0.749955
vt 0.776539 0.735110
vt 0.834929 0.746601
vt 0.831251 0.792994
vt 0.773118 0.811539
vt 0.973917 0.326097
vt 0.878055 0.379220
vt 0.916393 0.329803
vt 0.750435 0.230424
vt 0.703453 0.208023
vt 0.688140 0.125846
vt 0.779558 0.079633
vt 0.777551 0.080804
vt 0.778728 0.079110
vt 0.715823 0.506686
vt 0.793670 0.488846
vt 0.801825 0.530477
vt 0.738102 0.547710
vt 0.834416 0.252789
vt 0.822506 0.146432
vt 0.904074 0.187864
vt 0.924985 0.229722
vt 0.948355 0.385982
vt 0.969820 0.466470
vt 0.920563 0.501882
vt 0.922681 0.446337
vt 0.790036 0.013726
vt 0.847949 0.022020
vt 0.845599 0.034310
vt 0.790663 0.024598
vt 0.909424 0.034070
vt 0.907031 0.045851
vt 0.753325 0.370710
vt 0.811761 0.351220
vt 0.815099 0.362632
vt 0.757281 0.381600
vt 0.867611 0.339400
vt 0.867569 0.349993
vt 0.947955 0.804577
vt 0.894569 0.819542
vt 0.891833 0.808048
vt 0.943842 0.795610
vt 0.964407 0.046675
vt 0.960716 0.055860
vt 0.701570 0.392574
vt 0.707377 0.401041
vt 0.839373 0.829317
vt 0.839618 0.818822
vt 0.763243 0.400176
vt 0.821009 0.380398
vt 0.857623 0.409571
vt 0.774641 0.444137
vt 0.841106 0.053808
vt 0.903560 0.065506
vt 0.936822 0.138543
vt 0.853226 0.377349
vt 0.942290 0.781817
vt 0.886920 0.789172
vt 0.849297 0.742262
vt 0.958900 0.746144
vt 0.959873 0.070066
vt 0.955680 0.095641
vt 0.711763 0.414540
vt 0.688140 0.434598
vt 0.835995 0.804960
vt 0.835294 0.790805
vt 0.787377 0.038864
vt 0.871485 0.364061
vt 0.775081 0.034967
vt 0.788058 0.000183
vt 0.850497 0.008187
vt 0.912479 0.020860
vt 0.748665 0.358469
vt 0.808021 0.338117
vt 0.868774 0.326097
vt 0.954429 0.815346
vt 0.897716 0.832433
vt 0.970434 0.035567
vt 0.693335 0.382576
vt 0.837944 0.842414
vt 0.687775 0.117973
vt 0.970434 0.167624
vt 0.731610 0.133651
vt 0.739144 0.174336
vt 0.908862 0.239649
vt 0.829160 0.318526
vt 0.737335 0.325732
vt 0.871485 0.548810
vt 0.825791 0.638471
vt 0.779084 0.911506
vt 0.702898 0.774610
vt 0.707001 0.839089
vt 0.857815 0.486497
vt 0.883434 0.492061
vt 0.871850 0.431699
vt 0.953039 0.693743
vt 0.855806 0.691170
vt 0.885757 0.638836
vt 0.923364 0.642226
vt 0.864227 0.098103
vt 0.727500 0.092691
vt 0.999817 0.368454
vt 0.999817 0.421479
vt 0.781650 0.466774
vt 0.848753 0.455349
vt 0.700673 0.742349
vt 0.766750 0.697026
vt 0.702513 0.471395
vt 0.834750 0.706098
vt 0.834929 0.665637
vt 0.958900 0.791498
# 167 texture coordinates

vn -0.723423 -0.684316 0.091490
vn -0.337745 -0.937739 0.081083
vn -0.500156 -0.591433 0.632497
vn 0.015660 -0.480583 0.876809
vn 0.589298 -0.507156 0.628905
vn 0.829202 -0.558668 0.017698
vn -0.514541 -0.737844 -0.436845
vn 0.405098 -0.714530 -0.570388
vn -0.123079 -0.702437 -0.701024
vn -0.040577 -0.266589 -0.962956
vn -0.715270 -0.241980 -0.655618
vn -0.740460 -0.153638 -0.654305
vn -0.044242 -0.143045 -0.988727
vn 0.683029 -0.103939 -0.722958
vn 0.632570 0.346098 -0.692872
vn 0.936512 0.345838 -0.057796
vn 0.997077 -0.056812 -0.051092
vn 0.741390 -0.170110 0.649156
vn 0.983792 -0.170821 -0.054533
vn 0.760079 -0.029808 0.649147
vn 0.658195 -0.223846 -0.718799
vn -0.067199 0.335449 -0.939659
vn -0.663507 -0.197949 0.721509
vn 0.057057 -0.195128 0.979117
vn 0.060367 -0.040905 0.997338
vn -0.682528 -0.078541 0.726627
vn -0.978225 -0.203771 0.039421
vn -0.991113 -0.125423 0.044311
vn -0.053684 0.788316 -0.612924
vn 0.366222 0.806228 -0.464626
vn -0.731126 0.274657 -0.624514
vn 0.699194 0.392182 0.597764
vn -0.664523 0.336919 0.667004
vn -0.965593 0.257969 0.032911
vn 0.033620 0.414315 0.909512
vn -0.055426 -0.291562 -0.954945
vn 0.626286 -0.282230 -0.726713
vn -0.951486 -0.302576 0.055870
vn -0.693662 -0.309769 -0.650290
vn -0.623368 -0.276868 0.731270
vn 0.696595 -0.249202 0.672796
vn 0.043666 -0.248342 0.967688
vn 0.965405 -0.257306 -0.042272
vn -0.143978 0.989290 0.023980
vn 0.485441 0.660276 -0.573048
vn 0.370922 0.850911 -0.371978
vn 0.006918 0.814575 0.580017
vn -0.413188 0.804238 0.427172
vn 0.564447 0.824022 -0.048869
vn -0.607255 0.794427 0.011295
vn 0.411510 0.825067 0.387201
vn -0.454235 0.785604 -0.420115
vn -0.711224 0.155639 -0.685520
vn -0.304122 0.040319 0.951779
vn -0.211538 0.328866 0.920380
vn -0.729630 0.034165 -0.682988
vn -0.749075 -0.086677 -0.656791
vn 0.033601 0.999187 0.022288
vn -0.543475 -0.363103 0.756830
vn 0.143911 0.956627 0.253287
vn -0.767807 -0.622066 0.153315
vn 0.503257 0.648152 -0.571516
vn -0.527856 0.064362 -0.846892
vn 0.720068 -0.123933 0.682746
vn 0.686675 0.137839 0.713777
vn -0.698902 -0.391901 0.598289
vn 0.730579 0.669712 -0.133194
vn 0.734467 0.661183 -0.152955
vn -0.768431 -0.083705 0.634435
vn -0.153429 0.588542 0.793774
vn 0.799399 0.124461 -0.587767
vn 0.289772 0.953807 0.079280
vn -0.150217 0.615065 0.774035
vn -0.601989 0.572896 -0.556237
vn -0.811521 0.583728 0.026381
vn -0.988258 0.145827 0.045623
vn -0.725882 0.138527 -0.673726
vn -0.548113 0.593237 0.589612
vn -0.656618 0.156852 0.737733
vn 0.576057 0.615955 0.537362
vn 0.785715 0.616094 -0.055496
vn 0.983126 0.174443 -0.055073
vn 0.720611 0.176745 0.670433
vn 0.512721 0.595309 -0.618647
vn 0.645540 0.158466 -0.747105
vn -0.058682 0.574658 -0.816287
vn -0.055831 0.142512 -0.988217
vn 0.023455 0.603271 0.797191
vn 0.044954 0.168063 0.984751
vn 0.751955 -0.429324 0.500244
vn 0.959442 -0.280672 -0.026344
vn 0.750334 -0.405923 0.521753
vn -0.890450 -0.450912 -0.061452
vn -0.605214 -0.693003 0.391745
vn 0.531452 -0.445277 -0.720616
vn -0.109205 -0.486547 -0.866802
vn 0.808866 -0.141709 -0.570661
vn 0.105344 -0.611260 0.784388
vn -0.710298 -0.290752 -0.641046
vn -0.915288 -0.402593 -0.012948
vn 0.710168 0.692716 -0.125725
vn -0.849728 -0.522825 -0.067948
vn 0.730850 0.456134 -0.507741
vn 0.362021 0.818890 0.445376
vn 0.179939 0.079844 -0.980432
vn -0.533316 0.796210 -0.285700
vn -0.581877 0.231620 -0.779597
vn 0.693257 -0.245752 0.677496
vn 0.652077 0.077760 -0.754154
vn -0.716343 0.510046 -0.476135
vn -0.462837 0.363412 0.808526
# 111 normals

usemtl None
f 8/1/1 7/2/2 9/3/3
f 9/3/3 7/2/2 1/4/4
f 2/5/5 7/2/2 3/6/6
f 6/7/7 7/2/2 8/1/1
f 7/2/2 2/5/5 1/4/4
f 3/6/6 7/2/2 4/8/8
f 7/2/2 6/9/7 5/10/9
f 37/11/10 34/12/11 15/13/12 14/14/13
f 4/8/8 7/2/2 5/10/9
f 13/15/14 21/16/15 20/17/16 12/18/17
f 38/19/18 35/20/19 12/18/17 11/21/20
f 39/22/21 13/15/14 12/18/17 35/20/19
f 14/14/13 22/23/22 21/16/15 13/15/14
f 40/24/23 36/25/24 10/26/25 17/27/26
f 36/25/24 38/19/18 11/21/20 10/26/25
f 41/28/27 40/24/23 17/27/26 16/29/28
f 34/30/11 41/28/27 16/29/28 15/31/12
f 21/16/15 22/23/22 69/32/29 77/33/30
f 14/14/13 15/13/12 23/34/31 22/23/22
f 11/21/20 12/18/17 20/17/16 19/35/32
f 16/29/28 17/27/26 25/36/33 24/37/34
f 17/27/26 10/26/25 18/38/35 25/36/33
f 15/31/12 16/29/28 24/37/34 23/39/31
f 10/26/25 11/21/20 19/35/32 18/38/35
f 39/22/21 37/11/10 14/14/13 13/15/14
f 4/8/8 5/10/9 27/40/36 30/41/37
f 6/7/7 8/1/1 33/42/38 26/43/39
f 8/1/1 9/3/3 32/44/40 33/42/38
f 1/4/4 2/5/5 29/45/41 31/46/42
f 9/3/3 1/4/4 31/46/42 32/44/40
f 4/8/8 30/41/37 28/47/43 3/6/6
f 2/5/5 3/6/6 28/47/43 29/45/41
f 5/10/9 6/9/7 26/48/39 27/40/36
f 30/41/37 27/40/36 37/11/10 39/22/21
f 26/43/39 33/42/38 41/28/27 34/30/11
f 33/42/38 32/44/40 40/24/23 41/28/27
f 31/46/42 29/45/41 38/19/18 36/25/24
f 32/44/40 31/46/42 36/25/24 40/24/23
f 30/41/37 39/22/21 35/20/19 28/47/43
f 29/45/41 28/47/43 35/20/19 38/19/18
f 27/40/36 26/48/39 34/12/11 37/11/10
f 50/49/44 44/50/45 99/51/46
f 25/36/33 18/38/35 73/52/47 75/53/48
f 20/17/16 21/16/15 77/33/30 79/54/49
f 24/37/34 25/36/33 75/53/48 81/55/50
f 19/35/32 20/17/16 79/54/49 72/56/51
f 23/39/31 24/37/34 81/55/50 68/57/52
f 103/58/53 102/59/54 86/60/55 89/61/56
f 50/62/44 45/63/57 46/64/58
f 49/65/59 42/66/60 50/67/44
f 48/68/61 94/69/62 95/70/63
f 102/71/54 101/72/64 87/73/65 86/74/55
f 97/75/66 96/76/67 85/77/68 84/78/69
f 110/79/70 109/80/71 90/81/72 92/82/73
f 67/83/74 82/84/75 65/85/76 52/86/77
f 82/84/75 76/87/78 59/88/79 65/85/76
f 71/89/80 80/90/81 63/91/82 54/92/83
f 80/90/81 78/93/84 61/94/85 63/91/82
f 78/95/84 70/96/86 55/97/87 61/98/85
f 76/87/78 74/99/88 57/100/89 59/88/79
f 74/101/88 71/89/80 54/92/83 57/102/89
f 70/96/86 67/103/74 52/104/77 55/97/87
f 53/105/90 64/106/91 44/107/45 43/108/92
f 66/109/93 60/110/94 49/111/59 48/68/61
f 18/38/35 19/35/32 72/56/51 73/52/47
f 64/106/91 99/112/46 44/107/45
f 62/113/95 56/114/96 45/115/57 47/116/97
f 60/110/94 58/117/98 42/118/60 49/111/59
f 58/119/98 53/105/90 43/108/92 42/120/60
f 56/114/96 51/121/99 46/122/58 45/115/57
f 66/109/93 51/123/99 52/86/77 65/85/76
f 60/110/94 66/109/93 65/85/76 59/88/79
f 64/106/91 53/105/90 54/92/83 63/91/82
f 62/124/95 64/106/91 63/91/82 61/94/85
f 56/114/96 62/113/95 61/98/85 55/97/87
f 58/117/98 60/110/94 59/88/79 57/100/89
f 53/105/90 58/119/98 57/102/89 54/92/83
f 51/121/99 56/114/96 55/97/87 52/104/77
f 51/123/99 66/109/93 48/68/61 95/70/63 46/125/58
f 82/84/75 67/83/74 68/126/52 81/127/50
f 76/87/78 82/84/75 81/127/50 75/128/48
f 80/90/81 71/89/80 72/129/51 79/130/49
f 78/93/84 80/90/81 79/130/49 77/131/30
f 70/96/86 78/95/84 77/132/30 69/133/29
f 74/99/88 76/87/78 75/128/48 73/134/47
f 71/89/80 74/101/88 73/135/47 72/129/51
f 67/103/74 70/96/86 69/133/29 68/136/52
f 22/23/22 23/34/31 68/137/52 69/32/29
f 83/138/100 84/78/69 85/77/68
f 50/67/44 94/69/62 93/139/101
f 98/140/102 97/141/66 84/142/69 83/143/100
f 87/73/65 88/144/103 100/145/104
f 86/60/55 100/146/104 89/61/56
f 104/147/105 103/58/53 89/61/56 88/148/103
f 101/72/64 104/149/105 88/144/103 87/73/65
f 91/150/106 92/82/73 90/81/72
f 111/151/107 110/79/70 92/82/73 91/150/106
f 109/152/71 111/153/107 91/154/106 90/155/72
f 93/139/101 94/69/62 48/68/61 98/156/102 96/76/67
f 93/139/101 49/65/59 50/67/44
f 95/70/63 94/69/62 50/67/44 46/157/58
f 96/76/67 98/156/102 83/138/100 85/77/68
f 48/68/61 49/111/59 97/141/66 98/140/102
f 49/65/59 93/139/101 96/76/67 97/75/66
f 99/158/46 47/159/97 50/62/44
f 99/112/46 64/106/91 62/124/95
f 100/146/104 88/148/103 89/61/56
f 100/145/104 86/74/55 87/73/65
f 108/160/108 107/161/109 104/149/105 101/72/64
f 107/162/109 106/163/110 103/58/53 104/147/105
f 105/164/111 108/160/108 101/72/64 102/71/54
f 106/163/110 105/165/111 102/59/54 103/58/53
f 50/49/44 42/166/60 105/165/111 106/163/110
f 42/120/60 43/108/92 108/160/108 105/164/111
f 44/50/45 50/49/44 106/163/110 107/162/109
f 43/108/92 44/107/45 107/161/109 108/160/108
f 47/116/97 45/115/57 111/153/107 109/152/71
f 45/63/57 50/62/44 110/79/70 111/151/107
f 50/62/44 47/159/97 109/80/71 110/79/70
f 47/116/97 99/167/46 62/113/95

# 120 faces
