# Blender v2.83.1 OBJ File: ''
# www.blender.org
mtllib gate border.mtl
o Cylinder.001_Cylinder.002
v 1.187853 0.003627 -0.090000
v 1.187853 1.283628 -0.090000
v 1.224459 1.283628 -0.082219
v 1.224459 0.003627 -0.082219
v 1.254736 1.283628 -0.060222
v 1.254736 0.003627 -0.060222
v 1.273448 1.283628 -0.027812
v 1.273448 0.003627 -0.027812
v 1.277360 1.283628 0.009408
v 1.277360 0.003627 0.009408
v 1.265795 1.283628 0.045000
v 1.265795 0.003627 0.045000
v 1.240754 1.283628 0.072812
v 1.240754 0.003627 0.072812
v 1.206565 1.283628 0.088033
v 1.206565 0.003627 0.088033
v 1.169141 1.283628 0.088033
v 1.169141 0.003627 0.088033
v 1.134952 1.283628 0.072812
v 1.134952 0.003627 0.072812
v 1.109911 1.283628 0.045000
v 1.109911 0.003627 0.045000
v 1.098346 1.283628 0.009408
v 1.098346 0.003627 0.009408
v 1.102258 1.283628 -0.027812
v 1.102258 0.003627 -0.027812
v 1.120970 1.283628 -0.060222
v 1.120970 0.003627 -0.060222
v 1.151247 1.283628 -0.082219
v 1.151247 0.003627 -0.082219
v 0.000000 0.003627 -0.090000
v 0.000000 1.283628 -0.090000
v 0.036606 1.283628 -0.082219
v 0.036606 0.003627 -0.082219
v 0.066883 1.283628 -0.060222
v 0.066883 0.003627 -0.060222
v 0.085595 1.283628 -0.027812
v 0.085595 0.003627 -0.027812
v 0.089507 1.283628 0.009408
v 0.089507 0.003627 0.009408
v 0.077942 1.283628 0.045000
v 0.077942 0.003627 0.045000
v 0.052901 1.283628 0.072812
v 0.052901 0.003627 0.072812
v 0.018712 1.283628 0.088033
v 0.018712 0.003627 0.088033
v -0.018712 1.283628 0.088033
v -0.018712 0.003627 0.088033
v -0.052901 1.283628 0.072812
v -0.052901 0.003627 0.072812
v -0.077942 1.283628 0.045000
v -0.077942 0.003627 0.045000
v -0.089507 1.283628 0.009408
v -0.089507 0.003627 0.009408
v -0.085595 1.283628 -0.027812
v -0.085595 0.003627 -0.027812
v -0.066883 1.283628 -0.060222
v -0.066883 0.003627 -0.060222
v -0.036606 1.283628 -0.082219
v -0.036606 0.003627 -0.082219
v 0.944250 1.519231 0.051970
v 1.287199 1.335102 0.050131
v 1.287199 1.335102 -0.050131
v 0.944250 1.519231 -0.048293
v 0.991935 1.351101 -0.044173
v 1.365940 1.188504 -0.050131
v 1.287199 1.139639 -0.050131
v 0.944250 1.323768 -0.048293
v 1.287199 1.139639 0.050131
v 0.944250 1.323768 0.051970
v 0.991935 1.448833 0.056089
v 1.365940 1.286236 0.050131
v -0.130078 1.188504 -0.026300
v -0.084595 1.139639 -0.042777
v -0.084595 1.139639 0.057485
v -0.130078 1.188504 0.073962
v 1.365940 1.286236 -0.050131
v 1.382006 1.237370 -0.050131
v 1.382006 1.237370 0.050131
v 1.365940 1.188504 0.050131
v -0.130078 1.286236 -0.026300
v -0.139040 1.237370 -0.022942
v -0.139040 1.237370 0.077321
v -0.130078 1.286236 0.073962
v 0.991935 1.351101 0.056089
v 1.001745 1.396307 0.056929
v 0.991935 1.448833 -0.044173
v 1.001745 1.396307 -0.043334
v -0.084595 1.335102 -0.042777
v -0.084595 1.335102 0.057485
v 0.526418 1.480214 -0.034837
v 0.621483 1.484798 -0.036536
v 0.617931 1.435932 -0.038216
v 0.524430 1.431499 -0.036726
v 0.515565 1.383346 0.054268
v 0.601302 1.387066 0.053808
v 0.617931 1.435932 0.062047
v 0.524430 1.431499 0.063536
v 0.526418 1.480214 0.065425
v 0.621483 1.484798 0.063726
v 0.617931 1.533663 0.062047
v 0.524430 1.529231 0.063536
v 0.515565 1.578809 -0.045995
v 0.601302 1.582529 -0.046454
v 0.617931 1.533663 -0.038216
v 0.524430 1.529231 -0.036726
v 0.601302 1.582529 0.053808
v 0.515565 1.578809 0.054268
v 0.515565 1.383346 -0.045995
v 0.601302 1.387066 -0.046454
v 0.258354 1.513941 0.055647
v 0.258354 1.513941 -0.044616
v 0.243926 1.357595 -0.032258
v 0.258353 1.318478 -0.044616
v 0.258353 1.318478 0.055647
v 0.243926 1.455327 0.068004
v 0.243926 1.357595 0.068004
v 0.241222 1.397509 0.070523
v 0.243926 1.455327 -0.032258
v 0.241222 1.397509 -0.029739
v 0.811614 1.465910 -0.039935
v 0.804933 1.417687 -0.041195
v 0.772776 1.372917 0.052889
v 0.804933 1.417687 0.059068
v 0.811614 1.465910 0.060327
v 0.804933 1.515419 0.059068
v 0.772776 1.568380 -0.047374
v 0.804933 1.515419 -0.041195
v 0.772776 1.568380 0.052889
v 0.772776 1.372917 -0.047374
v 0.429828 1.567289 0.054727
v 0.429828 1.567289 -0.045535
v 0.430929 1.419046 -0.035237
v 0.429828 1.371826 -0.045535
v 0.429828 1.371826 0.054727
v 0.430929 1.516777 0.065026
v 0.430929 1.419046 0.065026
v 0.431352 1.465910 0.067125
v 0.430929 1.516777 -0.035237
v 0.431352 1.465910 -0.033138
v 0.687039 1.578809 0.053348
v 0.687039 1.578809 -0.046914
v 0.711432 1.431499 -0.039705
v 0.687039 1.383346 -0.046914
v 0.687039 1.383346 0.053348
v 0.711432 1.529231 0.060557
v 0.711432 1.431499 0.060557
v 0.716549 1.480214 0.062027
v 0.711432 1.529231 -0.039705
v 0.716549 1.480214 -0.038236
vt 1.000000 0.500000
vt 1.000000 1.000000
vt 0.933333 1.000000
vt 0.933333 0.500000
vt 0.866667 1.000000
vt 0.866667 0.500000
vt 0.800000 1.000000
vt 0.800000 0.500000
vt 0.733333 1.000000
vt 0.733333 0.500000
vt 0.666667 1.000000
vt 0.666667 0.500000
vt 0.600000 1.000000
vt 0.600000 0.500000
vt 0.533333 1.000000
vt 0.533333 0.500000
vt 0.466667 1.000000
vt 0.466667 0.500000
vt 0.400000 1.000000
vt 0.400000 0.500000
vt 0.333333 1.000000
vt 0.333333 0.500000
vt 0.266667 1.000000
vt 0.266667 0.500000
vt 0.200000 1.000000
vt 0.200000 0.500000
vt 0.133333 1.000000
vt 0.133333 0.500000
vt 0.347617 0.469251
vt 0.250000 0.490000
vt 0.152383 0.469251
vt 0.071645 0.410591
vt 0.021746 0.324164
vt 0.011315 0.224913
vt 0.042154 0.130000
vt 0.108932 0.055836
vt 0.200101 0.015245
vt 0.299899 0.015245
vt 0.391068 0.055836
vt 0.457846 0.130000
vt 0.488685 0.224913
vt 0.478254 0.324164
vt 0.428355 0.410591
vt 0.066667 1.000000
vt 0.066667 0.500000
vt 0.000000 1.000000
vt 0.000000 0.500000
vt 0.750000 0.490000
vt 0.847617 0.469251
vt 0.928355 0.410591
vt 0.978254 0.324164
vt 0.988685 0.224913
vt 0.957846 0.130000
vt 0.891068 0.055836
vt 0.799899 0.015245
vt 0.700101 0.015245
vt 0.608932 0.055836
vt 0.542154 0.130000
vt 0.511315 0.224913
vt 0.521746 0.324164
vt 0.571645 0.410591
vt 0.652383 0.469251
vt 1.000000 0.500000
vt 1.000000 1.000000
vt 0.933333 1.000000
vt 0.933333 0.500000
vt 0.866667 1.000000
vt 0.866667 0.500000
vt 0.800000 1.000000
vt 0.800000 0.500000
vt 0.733333 1.000000
vt 0.733333 0.500000
vt 0.666667 1.000000
vt 0.666667 0.500000
vt 0.600000 1.000000
vt 0.600000 0.500000
vt 0.533333 1.000000
vt 0.533333 0.500000
vt 0.466667 1.000000
vt 0.466667 0.500000
vt 0.400000 1.000000
vt 0.400000 0.500000
vt 0.333333 1.000000
vt 0.333333 0.500000
vt 0.266667 1.000000
vt 0.266667 0.500000
vt 0.200000 1.000000
vt 0.200000 0.500000
vt 0.133333 1.000000
vt 0.133333 0.500000
vt 0.347617 0.469251
vt 0.250000 0.490000
vt 0.152383 0.469251
vt 0.071645 0.410591
vt 0.021746 0.324164
vt 0.011315 0.224913
vt 0.042154 0.130000
vt 0.108932 0.055836
vt 0.200101 0.015245
vt 0.299899 0.015245
vt 0.391068 0.055836
vt 0.457846 0.130000
vt 0.488685 0.224913
vt 0.478254 0.324164
vt 0.428355 0.410591
vt 0.066667 1.000000
vt 0.066667 0.500000
vt 0.000000 1.000000
vt 0.000000 0.500000
vt 0.750000 0.490000
vt 0.847617 0.469251
vt 0.928355 0.410591
vt 0.978254 0.324164
vt 0.988685 0.224913
vt 0.957846 0.130000
vt 0.891068 0.055836
vt 0.799899 0.015245
vt 0.700101 0.015245
vt 0.608932 0.055836
vt 0.542154 0.130000
vt 0.511315 0.224913
vt 0.521746 0.324164
vt 0.571645 0.410591
vt 0.652383 0.469251
vt 0.562500 0.000000
vt 0.625000 0.000000
vt 0.625000 0.250000
vt 0.562500 0.250000
vt 0.562500 0.437500
vt 0.625000 0.437500
vt 0.625000 0.500000
vt 0.562500 0.500000
vt 0.625000 0.750000
vt 0.562500 0.750000
vt 0.562500 0.937500
vt 0.625000 0.937500
vt 0.625000 1.000000
vt 0.562500 1.000000
vt 0.312500 0.500000
vt 0.375000 0.500000
vt 0.375000 0.750000
vt 0.312500 0.750000
vt 0.812500 0.500000
vt 0.875000 0.500000
vt 0.875000 0.750000
vt 0.812500 0.750000
vt 0.687500 0.500000
vt 0.750000 0.500000
vt 0.750000 0.750000
vt 0.687500 0.750000
vt 0.187500 0.500000
vt 0.250000 0.500000
vt 0.250000 0.750000
vt 0.187500 0.750000
vt 0.562500 0.812500
vt 0.625000 0.812500
vt 0.625000 0.875000
vt 0.562500 0.875000
vt 0.562500 0.312500
vt 0.625000 0.312500
vt 0.625000 0.375000
vt 0.562500 0.375000
vt 0.125000 0.500000
vt 0.125000 0.750000
vt 0.484375 0.375000
vt 0.500000 0.375000
vt 0.500000 0.437500
vt 0.484375 0.437500
vt 0.484375 0.750000
vt 0.500000 0.750000
vt 0.500000 0.812500
vt 0.484375 0.812500
vt 0.484375 0.875000
vt 0.500000 0.875000
vt 0.500000 0.937500
vt 0.484375 0.937500
vt 0.484375 0.250000
vt 0.500000 0.250000
vt 0.500000 0.312500
vt 0.484375 0.312500
vt 0.500000 1.000000
vt 0.484375 1.000000
vt 0.484375 0.500000
vt 0.500000 0.500000
vt 0.484375 0.000000
vt 0.500000 0.000000
vt 0.375000 0.000000
vt 0.437500 0.000000
vt 0.437500 0.250000
vt 0.375000 0.250000
vt 0.375000 0.437500
vt 0.437500 0.437500
vt 0.437500 0.500000
vt 0.437500 0.750000
vt 0.375000 0.937500
vt 0.437500 0.937500
vt 0.437500 1.000000
vt 0.375000 1.000000
vt 0.375000 0.812500
vt 0.437500 0.812500
vt 0.437500 0.875000
vt 0.375000 0.875000
vt 0.375000 0.312500
vt 0.437500 0.312500
vt 0.437500 0.375000
vt 0.375000 0.375000
vt 0.531250 0.375000
vt 0.531250 0.437500
vt 0.531250 0.750000
vt 0.531250 0.812500
vt 0.531250 0.875000
vt 0.531250 0.937500
vt 0.531250 0.250000
vt 0.531250 0.312500
vt 0.531250 1.000000
vt 0.531250 0.500000
vt 0.531250 0.000000
vt 0.468750 0.000000
vt 0.468750 0.250000
vt 0.468750 0.437500
vt 0.468750 0.500000
vt 0.468750 0.750000
vt 0.468750 0.937500
vt 0.468750 1.000000
vt 0.468750 0.812500
vt 0.468750 0.875000
vt 0.468750 0.312500
vt 0.468750 0.375000
vt 0.515625 0.000000
vt 0.515625 0.250000
vt 0.515625 0.437500
vt 0.515625 0.500000
vt 0.515625 0.750000
vt 0.515625 0.937500
vt 0.515625 1.000000
vt 0.515625 0.812500
vt 0.515625 0.875000
vt 0.515625 0.312500
vt 0.515625 0.375000
vn -0.0000 -0.6632 -0.7485
vn -0.0000 0.6632 -0.7485
vn 0.3044 0.6632 -0.6838
vn 0.3044 -0.6632 -0.6838
vn 0.5562 0.6632 -0.5008
vn 0.5562 -0.6632 -0.5008
vn 0.7118 0.6632 -0.2313
vn 0.7118 -0.6632 -0.2313
vn 0.7444 0.6632 0.0782
vn 0.7444 -0.6632 0.0782
vn 0.6482 0.6632 0.3742
vn 0.6482 -0.6632 0.3742
vn 0.4399 0.6632 0.6055
vn 0.4399 -0.6632 0.6055
vn 0.1556 0.6632 0.7321
vn 0.1556 -0.6632 0.7321
vn -0.1556 0.6632 0.7321
vn -0.1556 -0.6632 0.7321
vn -0.4399 0.6632 0.6055
vn -0.4399 -0.6632 0.6055
vn -0.6482 0.6632 0.3742
vn -0.6482 -0.6632 0.3742
vn -0.7444 0.6632 0.0782
vn -0.7444 -0.6632 0.0782
vn -0.7118 0.6632 -0.2313
vn -0.7118 -0.6632 -0.2313
vn -0.5562 0.6632 -0.5008
vn -0.5562 -0.6632 -0.5008
vn -0.3044 0.6632 -0.6838
vn -0.3044 -0.6632 -0.6838
vn 0.2908 0.7099 0.6414
vn 0.3768 0.6498 0.6602
vn 0.3366 0.5848 -0.7380
vn 0.2573 0.6400 -0.7240
vn 0.0013 0.0386 -0.9993
vn 0.6083 -0.4655 -0.6429
vn 0.0313 -0.7824 -0.6220
vn -0.2537 -0.5927 -0.7644
vn 0.0186 -0.8017 0.5975
vn -0.2598 -0.6684 0.6970
vn 0.0401 0.0605 0.9974
vn 0.6120 0.4810 0.6278
vn -0.7359 -0.2769 -0.6179
vn -0.1793 -0.7160 -0.6747
vn -0.1063 -0.8602 0.4988
vn -0.6226 -0.4126 0.6649
vn 0.5988 0.4715 -0.6474
vn 0.7617 0.0020 -0.6480
vn 0.7699 -0.0020 0.6381
vn 0.6028 -0.4869 0.6321
vn -0.6876 0.3117 -0.6558
vn -0.7651 0.0122 -0.6438
vn -0.7215 -0.0131 0.6923
vn -0.6667 0.3681 0.6481
vn -0.0013 -0.0386 0.9993
vn 0.0169 -0.0003 0.9999
vn -0.0401 -0.0605 -0.9974
vn -0.0169 0.0003 -0.9999
vn -0.4061 0.4389 -0.8016
vn -0.4929 0.7068 0.5074
vn -0.0167 -0.0008 -0.9999
vn -0.0169 -0.0011 -0.9999
vn -0.0135 0.1001 -0.9949
vn -0.0239 0.1142 -0.9932
vn 0.0761 -0.7625 0.6425
vn 0.0086 -0.7583 0.6519
vn 0.0135 -0.1001 0.9949
vn 0.0239 -0.1142 0.9932
vn 0.0167 0.0008 0.9999
vn 0.0169 0.0011 0.9999
vn 0.0143 0.1039 0.9945
vn 0.0036 0.1129 0.9936
vn -0.0649 0.6485 -0.7584
vn -0.0066 0.6561 -0.7547
vn -0.0143 -0.1039 -0.9945
vn -0.0036 -0.1129 -0.9936
vn 0.0056 0.7722 0.6354
vn -0.0625 0.7740 0.6301
vn 0.0445 -0.6184 -0.7846
vn -0.0102 -0.6304 -0.7762
vn -0.2987 0.7492 0.5911
vn -0.2542 0.5838 -0.7711
vn -0.0717 0.1444 -0.9869
vn 0.2145 -0.5378 -0.8153
vn 0.3020 -0.7189 0.6261
vn -0.0644 0.1774 0.9820
vn 0.0717 -0.1444 0.9869
vn 0.0168 -0.0014 0.9999
vn 0.0644 -0.1774 -0.9820
vn -0.0168 0.0014 -0.9999
vn -0.0178 -0.0017 -0.9998
vn 0.0035 0.0717 -0.9974
vn -0.1386 -0.7231 0.6767
vn -0.0035 -0.0717 0.9974
vn 0.0178 0.0017 0.9998
vn 0.0337 0.0782 0.9964
vn 0.1296 0.6632 -0.7372
vn -0.0337 -0.0782 -0.9964
vn 0.1569 0.7530 0.6391
vn -0.1355 -0.6230 -0.7704
vn -0.1637 0.7707 0.6159
vn -0.1494 0.6385 -0.7550
vn -0.0436 0.1293 -0.9907
vn 0.1145 -0.5806 -0.8061
vn 0.1771 -0.7517 0.6353
vn -0.0168 0.1263 0.9919
vn 0.0436 -0.1293 0.9907
vn 0.0163 0.0003 0.9999
vn 0.0168 -0.1263 -0.9919
vn -0.0163 -0.0003 -0.9999
vn 0.0689 0.7646 0.6409
vn 0.0473 0.6577 -0.7518
vn -0.0055 0.0871 -0.9962
vn -0.0617 -0.6378 -0.7677
vn -0.0539 -0.7495 0.6598
vn 0.0232 0.0938 0.9953
vn 0.0055 -0.0871 0.9962
vn 0.0171 0.0011 0.9999
vn -0.0232 -0.0938 -0.9953
vn -0.0171 -0.0011 -0.9999
usemtl None
s 1
f 1/1/1 2/2/2 3/3/3 4/4/4
f 4/4/4 3/3/3 5/5/5 6/6/6
f 6/6/6 5/5/5 7/7/7 8/8/8
f 8/8/8 7/7/7 9/9/9 10/10/10
f 10/10/10 9/9/9 11/11/11 12/12/12
f 12/12/12 11/11/11 13/13/13 14/14/14
f 14/14/14 13/13/13 15/15/15 16/16/16
f 16/16/16 15/15/15 17/17/17 18/18/18
f 18/18/18 17/17/17 19/19/19 20/20/20
f 20/20/20 19/19/19 21/21/21 22/22/22
f 22/22/22 21/21/21 23/23/23 24/24/24
f 24/24/24 23/23/23 25/25/25 26/26/26
f 26/26/26 25/25/25 27/27/27 28/28/28
f 3/29/3 2/30/2 29/31/29 27/32/27 25/33/25 23/34/23 21/35/21 19/36/19 17/37/17 15/38/15 13/39/13 11/40/11 9/41/9 7/42/7 5/43/5
f 28/28/28 27/27/27 29/44/29 30/45/30
f 30/45/30 29/44/29 2/46/2 1/47/1
f 1/48/1 4/49/4 6/50/6 8/51/8 10/52/10 12/53/12 14/54/14 16/55/16 18/56/18 20/57/20 22/58/22 24/59/24 26/60/26 28/61/28 30/62/30
f 31/63/1 32/64/2 33/65/3 34/66/4
f 34/66/4 33/65/3 35/67/5 36/68/6
f 36/68/6 35/67/5 37/69/7 38/70/8
f 38/70/8 37/69/7 39/71/9 40/72/10
f 40/72/10 39/71/9 41/73/11 42/74/12
f 42/74/12 41/73/11 43/75/13 44/76/14
f 44/76/14 43/75/13 45/77/15 46/78/16
f 46/78/16 45/77/15 47/79/17 48/80/18
f 48/80/18 47/79/17 49/81/19 50/82/20
f 50/82/20 49/81/19 51/83/21 52/84/22
f 52/84/22 51/83/21 53/85/23 54/86/24
f 54/86/24 53/85/23 55/87/25 56/88/26
f 56/88/26 55/87/25 57/89/27 58/90/28
f 33/91/3 32/92/2 59/93/29 57/94/27 55/95/25 53/96/23 51/97/21 49/98/19 47/99/17 45/100/15 43/101/13 41/102/11 39/103/9 37/104/7 35/105/5
f 58/90/28 57/89/27 59/106/29 60/107/30
f 60/107/30 59/106/29 32/108/2 31/109/1
f 31/110/1 34/111/4 36/112/6 38/113/8 40/114/10 42/115/12 44/116/14 46/117/16 48/118/18 50/119/20 52/120/22 54/121/24 56/122/26 58/123/28 60/124/30
f 61/125/31 62/126/32 63/127/33 64/128/34
f 65/129/35 66/130/36 67/131/37 68/132/38
f 68/132/38 67/131/37 69/133/39 70/134/40
f 71/135/41 72/136/42 62/137/32 61/138/31
f 73/139/43 74/140/44 75/141/45 76/142/46
f 77/143/47 63/144/33 62/145/32 72/146/42
f 66/147/36 78/148/48 79/149/49 80/150/50
f 81/151/51 82/152/52 83/153/53 84/154/54
f 85/155/55 80/156/50 79/157/49 86/158/56
f 87/159/57 77/160/47 78/161/48 88/162/58
f 64/128/34 63/127/33 77/160/47 87/159/57
f 89/163/59 81/151/51 84/154/54 90/164/60
f 78/148/48 77/143/47 72/146/42 79/149/49
f 86/158/56 79/157/49 72/136/42 71/135/41
f 70/134/40 69/133/39 80/156/50 85/155/55
f 67/131/37 66/147/36 80/150/50 69/133/39
f 82/152/52 73/139/43 76/142/46 83/153/53
f 88/162/58 78/161/48 66/130/36 65/129/35
f 91/165/61 92/166/62 93/167/63 94/168/64
f 95/169/65 96/170/66 97/171/67 98/172/68
f 99/173/69 100/174/70 101/175/71 102/176/72
f 103/177/73 104/178/74 105/179/75 106/180/76
f 106/180/76 105/179/75 92/166/62 91/165/61
f 98/172/68 97/171/67 100/174/70 99/173/69
f 102/176/72 101/175/71 107/181/77 108/182/78
f 109/183/79 110/184/80 96/170/66 95/169/65
f 94/168/64 93/167/63 110/184/80 109/183/79
f 108/185/78 107/186/77 104/178/74 103/177/73
f 90/187/60 111/188/81 112/189/82 89/190/59
f 73/191/43 113/192/83 114/193/84 74/140/44
f 74/140/44 114/193/84 115/194/85 75/141/45
f 84/195/54 116/196/86 111/197/81 90/198/60
f 76/199/46 117/200/87 118/201/88 83/202/53
f 81/203/51 119/204/89 120/205/90 82/206/52
f 89/190/59 112/189/82 119/204/89 81/203/51
f 83/202/53 118/201/88 116/196/86 84/195/54
f 75/141/45 115/194/85 117/200/87 76/199/46
f 82/206/52 120/205/90 113/192/83 73/191/43
f 121/207/91 88/162/58 65/129/35 122/208/92
f 123/209/93 70/134/40 85/155/55 124/210/94
f 125/211/95 86/158/56 71/135/41 126/212/96
f 127/213/97 64/128/34 87/159/57 128/214/98
f 128/214/98 87/159/57 88/162/58 121/207/91
f 124/210/94 85/155/55 86/158/56 125/211/95
f 126/212/96 71/135/41 61/138/31 129/215/99
f 130/216/100 68/132/38 70/134/40 123/209/93
f 122/208/92 65/129/35 68/132/38 130/216/100
f 129/217/99 61/125/31 64/128/34 127/213/97
f 111/188/81 131/218/101 132/219/102 112/189/82
f 113/192/83 133/220/103 134/221/104 114/193/84
f 114/193/84 134/221/104 135/222/105 115/194/85
f 116/196/86 136/223/106 131/224/101 111/197/81
f 117/200/87 137/225/107 138/226/108 118/201/88
f 119/204/89 139/227/109 140/228/110 120/205/90
f 112/189/82 132/219/102 139/227/109 119/204/89
f 118/201/88 138/226/108 136/223/106 116/196/86
f 115/194/85 135/222/105 137/225/107 117/200/87
f 120/205/90 140/228/110 133/220/103 113/192/83
f 141/229/111 129/217/99 127/213/97 142/230/112
f 143/231/113 122/208/92 130/216/100 144/232/114
f 144/232/114 130/216/100 123/209/93 145/233/115
f 146/234/116 126/212/96 129/215/99 141/235/111
f 147/236/117 124/210/94 125/211/95 148/237/118
f 149/238/119 128/214/98 121/207/91 150/239/120
f 142/230/112 127/213/97 128/214/98 149/238/119
f 148/237/118 125/211/95 126/212/96 146/234/116
f 145/233/115 123/209/93 124/210/94 147/236/117
f 150/239/120 121/207/91 122/208/92 143/231/113
f 131/218/101 108/185/78 103/177/73 132/219/102
f 133/220/103 94/168/64 109/183/79 134/221/104
f 134/221/104 109/183/79 95/169/65 135/222/105
f 136/223/106 102/176/72 108/182/78 131/224/101
f 137/225/107 98/172/68 99/173/69 138/226/108
f 139/227/109 106/180/76 91/165/61 140/228/110
f 132/219/102 103/177/73 106/180/76 139/227/109
f 138/226/108 99/173/69 102/176/72 136/223/106
f 135/222/105 95/169/65 98/172/68 137/225/107
f 140/228/110 91/165/61 94/168/64 133/220/103
f 92/166/62 150/239/120 143/231/113 93/167/63
f 96/170/66 145/233/115 147/236/117 97/171/67
f 100/174/70 148/237/118 146/234/116 101/175/71
f 104/178/74 142/230/112 149/238/119 105/179/75
f 105/179/75 149/238/119 150/239/120 92/166/62
f 97/171/67 147/236/117 148/237/118 100/174/70
f 101/175/71 146/234/116 141/235/111 107/181/77
f 110/184/80 144/232/114 145/233/115 96/170/66
f 93/167/63 143/231/113 144/232/114 110/184/80
f 107/186/77 141/229/111 142/230/112 104/178/74
