# Blender v2.83.1 OBJ File: ''
# www.blender.org
mtllib sign!!!!!!!!!!.mtl
o sign_free_obj
v 0.896983 20.110134 -4.183404
v 0.896983 22.183733 -6.907402
v 0.896983 22.185051 8.595992
v 0.896983 19.696192 6.750163
v 0.478892 22.185051 8.595992
v 0.478892 22.183733 -6.907402
v 0.478892 20.110134 -4.183404
v 0.478892 19.696192 6.750163
v 0.896983 25.093803 7.382772
v 0.896983 24.572340 -4.572773
v 0.478892 24.572340 -4.572773
v 0.478892 25.093803 7.382772
v -1.051034 -0.000000 1.086437
v -1.051034 0.000000 -1.035305
v 1.070707 0.000000 -1.035305
v 1.070707 -0.000000 1.086437
v -0.444969 27.872725 0.480376
v 0.464641 27.872725 0.480376
v 0.464641 27.872725 -0.429234
v -0.444969 27.872725 -0.429234
v 0.463391 6.968181 0.420772
v -0.930245 6.968181 0.420772
v 0.463391 6.968181 -0.972864
v -0.930245 6.968181 -0.972864
v 0.463391 20.904543 1.011971
v -0.930245 20.904543 1.011971
v -0.930245 13.936362 0.722387
v 0.463391 13.936362 0.722387
v 0.463391 20.904543 -0.381665
v 0.463391 13.936362 -0.671250
v -0.930245 20.904543 -0.381665
v -0.930245 13.936362 -0.671250
v 0.896983 19.743607 -3.640373
v 0.896983 22.183800 -3.713828
v 0.478892 22.183800 -3.713829
v 0.478892 19.743607 -3.640373
v 0.896983 24.793554 -3.976948
v 0.478892 24.793554 -3.976948
v 0.896983 19.701643 5.182812
v 0.896983 22.184906 8.530773
v 0.478892 19.701643 5.182812
v 0.478892 25.059299 5.704039
v 0.478892 22.184906 8.530772
v 0.896983 25.059299 5.704039
vt 0.431545 0.706082
vt 0.576432 0.601300
vt 0.643100 0.601300
vt 0.483100 0.706300
vt 0.583336 0.875395
vt 0.614600 0.875400
vt 0.602900 0.976500
vt 0.580366 0.976608
vt 0.045500 0.417200
vt 0.045500 0.401000
vt 0.192200 0.401000
vt 0.192200 0.417200
vt 0.068568 0.377399
vt 0.045500 0.377400
vt 0.045500 0.361200
vt 0.068535 0.361200
vt 0.019000 0.601200
vt 0.004300 0.601200
vt 0.004300 0.491800
vt 0.019000 0.491800
vt 0.236504 0.417200
vt 0.236495 0.400999
vt 0.457599 0.479960
vt 0.509800 0.478500
vt 0.594280 0.767130
vt 0.619000 0.767800
vt 0.491600 0.377400
vt 0.491600 0.361200
vt 0.613800 0.361200
vt 0.613800 0.377400
vt 0.019000 0.703600
vt 0.004300 0.703600
vt 0.626600 0.088300
vt 0.552000 0.088300
vt 0.552000 0.013700
vt 0.626600 0.013700
vt 0.708800 0.984900
vt 0.708800 0.952900
vt 0.740800 0.952900
vt 0.740800 0.984900
vt 0.809100 0.008000
vt 0.787700 0.253000
vt 0.738700 0.253000
vt 0.734500 0.008000
vt 0.899000 0.005700
vt 0.896800 0.250700
vt 0.847800 0.250700
vt 0.824400 0.005700
vt 0.993000 0.003300
vt 0.988800 0.248300
vt 0.939800 0.248300
vt 0.918400 0.003300
vt 0.714700 0.006300
vt 0.691300 0.251300
vt 0.642300 0.251300
vt 0.640100 0.006300
vt 0.787700 0.742000
vt 0.738700 0.742000
vt 0.738700 0.497000
vt 0.787700 0.497000
vt 0.876100 0.740700
vt 0.827100 0.740700
vt 0.837200 0.495700
vt 0.886200 0.495700
vt 0.988800 0.738300
vt 0.939800 0.738300
vt 0.939800 0.493300
vt 0.988800 0.493300
vt 0.712100 0.741300
vt 0.663100 0.741300
vt 0.652900 0.496300
vt 0.701900 0.496300
vt 0.787800 0.987000
vt 0.755800 0.987000
vt 0.877700 0.985700
vt 0.845700 0.985700
vt 0.971700 0.983300
vt 0.939700 0.983300
vt 0.693400 0.986300
vt 0.661400 0.986300
vt 0.192651 0.756129
vt 0.075360 0.875311
vt 0.031400 0.491900
vt 0.055587 0.491200
vt 0.063000 0.601300
vt 0.031400 0.601300
vt 0.598700 0.417200
vt 0.577701 0.417200
vt 0.577701 0.401000
vt 0.598700 0.401000
vt 0.442993 0.377400
vt 0.442978 0.361200
vt 0.214263 0.978359
vt 0.031400 0.704200
vt 0.054734 0.704308
vt 0.009400 0.875300
vt 0.166700 0.978600
vt 0.140500 0.754700
vn 1.0000 0.0000 0.0000
vn -1.0000 0.0000 0.0000
vn 0.0000 -0.1212 0.9926
vn 0.0000 -0.5957 0.8032
vn 0.0000 0.9817 -0.1903
vn 0.0000 0.9375 -0.3481
vn 0.0000 -0.0730 -0.9973
vn 0.0000 0.6990 -0.7151
vn 0.0000 -1.0000 -0.0041
vn 0.0000 -1.0000 -0.0035
vn 0.0000 0.3850 0.9229
vn 0.0000 -0.7957 -0.6057
vn 0.0000 -1.0000 -0.0000
vn 0.0000 1.0000 0.0000
vn 0.0000 0.0951 0.9955
vn 0.0000 0.0278 0.9996
vn 0.0000 0.0264 0.9997
vn 0.9962 0.0868 0.0000
vn 0.9990 0.0442 0.0000
vn 0.9990 0.0441 0.0000
vn 0.0000 0.0090 -1.0000
vn 0.0000 0.0260 -0.9997
vn 0.0000 0.0256 -0.9997
vn -0.9998 0.0173 0.0000
vn -1.0000 0.0088 0.0000
vn 0.0000 0.0173 0.9999
vn 0.0000 0.0160 0.9999
vn 0.0000 -0.0424 0.9991
vn 1.0000 -0.0001 0.0000
vn 0.0000 0.0179 -0.9998
vn 0.0000 0.0174 -0.9998
vn 0.0000 0.0424 -0.9991
vn -0.9994 0.0344 0.0000
vn 0.0000 0.0761 0.9971
vn 1.0000 -0.0002 0.0000
vn 0.0000 -0.0068 -1.0000
vn -0.9976 0.0695 0.0000
vn 0.0000 -0.8289 -0.5595
vn 0.0000 -0.9556 -0.2948
vn 0.0000 0.9997 -0.0240
vn 0.0000 0.9998 -0.0205
usemtl 01___Default
s 1
f 39/1/1 40/2/1 3/3/1 4/4/1
f 35/5/2 6/6/2 7/7/2 36/8/2
f 3/9/3 5/10/3 8/11/4 4/12/4
f 37/13/5 10/14/6 11/15/6 38/16/5
f 2/17/7 6/18/7 11/19/8 10/20/8
f 39/21/9 4/12/10 8/11/10 41/22/9
f 44/23/1 9/24/1 3/3/1 40/2/1
f 38/25/2 11/26/2 6/6/2 35/5/2
f 9/27/11 12/28/11 5/29/3 3/30/3
f 1/31/12 7/32/12 6/18/7 2/17/7
f 13/33/13 14/34/13 15/35/13 16/36/13
f 17/37/14 18/38/14 19/39/14 20/40/14
f 16/41/15 21/42/16 22/43/17 13/44/15
f 15/45/18 23/46/19 21/47/20 16/48/18
f 14/49/21 24/50/22 23/51/23 15/52/21
f 13/53/24 22/54/25 24/55/25 14/56/24
f 25/57/26 26/58/27 27/59/28 28/60/28
f 29/61/29 25/62/29 28/63/1 30/64/1
f 31/65/30 29/66/31 30/67/32 32/68/32
f 26/69/33 31/70/33 32/71/2 27/72/2
f 18/73/34 17/74/34 26/58/27 25/57/26
f 19/75/35 18/76/35 25/62/29 29/61/29
f 20/77/36 19/78/36 29/66/31 31/65/30
f 17/79/37 20/80/37 31/70/33 26/69/33
f 28/60/28 27/59/28 22/43/17 21/42/16
f 30/64/1 28/63/1 21/47/20 23/46/19
f 32/68/32 30/67/32 23/51/23 24/50/22
f 27/72/2 32/71/2 24/55/25 22/54/25
f 42/81/2 38/25/2 35/5/2 43/82/2
f 10/83/1 37/84/1 34/85/1 2/86/1
f 1/87/38 33/88/39 36/89/39 7/90/38
f 44/91/40 37/13/5 38/16/5 42/92/40
f 43/82/2 35/5/2 36/8/2 41/93/2
f 1/94/1 2/86/1 34/85/1 33/95/1
f 5/96/2 43/82/2 41/93/2 8/97/2
f 9/27/41 44/91/40 42/92/40 12/28/41
f 12/98/2 42/81/2 43/82/2 5/96/2
f 37/84/1 44/23/1 40/2/1 34/85/1
f 33/88/39 39/21/9 41/22/9 36/89/39
f 33/95/1 34/85/1 40/2/1 39/1/1
